<?xml version="1.0" standalone="no"?>
<!DOCTYPE svg PUBLIC "-//W3C//DTD SVG 20010904//EN"
 "http://www.w3.org/TR/2001/REC-SVG-20010904/DTD/svg10.dtd">
<svg version="1.0" xmlns="http://www.w3.org/2000/svg"
 width="350.000000pt" height="86.000000pt" viewBox="0 0 350.000000 86.000000"
 preserveAspectRatio="xMidYMid meet">

<g transform="translate(0.000000,86.000000) scale(0.100000,-0.100000)"
fill="#000000" stroke="none">
<path d="M741 849 c-356 -41 -674 -275 -674 -494 0 -86 45 -157 116 -184 35
-14 131 -14 177 -1 140 39 242 175 220 297 l-6 38 -8 -40 c-17 -96 -92 -175
-173 -182 -39 -4 -53 -1 -77 18 -59 47 -73 146 -33 234 52 111 219 217 457
289 121 37 121 39 1 25z"/>
<path d="M987 793 c-4 -3 -7 -167 -7 -364 0 -350 4 -400 31 -358 10 16 12 688
3 713 -7 17 -16 20 -27 9z"/>
<path d="M1460 587 c0 -168 3 -177 57 -177 40 0 44 17 6 22 l-28 3 -3 153 c-2
126 -5 152 -17 152 -13 0 -15 -25 -15 -153z"/>
<path d="M1870 575 c0 -140 2 -165 15 -165 12 0 15 16 15 80 0 73 2 83 25 106
19 19 34 24 57 22 44 -4 58 -35 58 -130 0 -63 3 -78 15 -78 12 0 15 15 15 73
0 98 -14 145 -48 158 -33 13 -70 4 -99 -23 l-23 -21 0 71 c0 57 -3 72 -15 72
-13 0 -15 -25 -15 -165z"/>
<path d="M1245 698 c-8 -18 -39 -90 -69 -160 -45 -106 -51 -128 -37 -128 11 0
23 17 36 50 l19 50 76 0 76 0 19 -50 c17 -45 46 -69 44 -37 -1 25 -125 301
-136 304 -7 3 -19 -10 -28 -29z m62 -88 l31 -80 -69 0 -69 0 16 38 c9 20 23
56 32 80 9 23 19 42 22 42 3 0 19 -36 37 -80z"/>
<path d="M2460 715 c0 -12 13 -15 60 -15 l60 0 0 -145 c0 -122 2 -145 15 -145
13 0 15 23 15 145 l0 145 55 0 c42 0 55 3 55 15 0 13 -21 15 -130 15 -109 0
-130 -2 -130 -15z"/>
<path d="M3390 680 c0 -29 -4 -40 -15 -40 -8 0 -15 -4 -15 -10 0 -5 7 -10 15
-10 12 0 15 -17 15 -94 0 -69 4 -97 14 -105 19 -16 78 -10 84 8 3 9 -1 11 -15
7 -45 -14 -53 0 -53 95 0 88 0 89 25 89 14 0 25 5 25 10 0 6 -11 10 -25 10
-22 0 -25 4 -25 40 0 29 -4 40 -15 40 -11 0 -15 -11 -15 -40z"/>
<path d="M490 678 c-74 -29 -161 -116 -179 -178 -7 -25 -11 -66 -9 -90 l4 -45
13 48 c35 122 147 196 236 155 49 -22 80 -114 64 -188 -33 -148 -206 -268
-514 -356 l-80 -23 65 5 c376 31 707 251 727 483 7 78 -33 154 -96 188 -58 30
-153 31 -231 1z"/>
<path d="M1670 643 c-8 -3 -25 -15 -37 -26 l-23 -20 0 21 c0 12 -4 22 -10 22
-6 0 -10 -62 -10 -165 0 -103 4 -165 10 -165 6 0 10 30 10 70 0 39 2 70 5 70
3 0 15 -9 26 -19 67 -62 169 -5 169 94 0 81 -73 143 -140 118z m85 -49 c54
-58 18 -164 -55 -164 -77 0 -121 110 -65 165 34 35 88 34 120 -1z"/>
<path d="M2162 635 c-18 -8 -31 -19 -27 -25 4 -7 12 -7 25 0 26 14 96 12 108
-3 6 -6 13 -24 17 -38 6 -26 6 -26 -52 -25 -77 1 -113 -20 -113 -68 0 -20 8
-40 20 -51 24 -22 90 -22 123 0 22 14 25 14 30 0 4 -8 13 -15 22 -15 17 0 20
16 5 25 -5 3 -10 39 -10 80 0 89 -4 102 -41 120 -35 19 -64 18 -107 0z m109
-115 c25 -14 24 -38 -3 -67 -44 -47 -140 -18 -123 37 11 35 83 52 126 30z"/>
<path d="M2810 639 c-14 -5 -33 -20 -42 -32 l-18 -22 0 28 c0 15 -4 27 -10 27
-6 0 -10 -45 -10 -115 0 -85 3 -115 13 -115 9 0 11 19 9 67 -3 80 10 112 56
132 17 8 32 21 32 28 0 7 -1 13 -2 12 -2 0 -14 -5 -28 -10z"/>
<path d="M3189 635 c-32 -18 -43 -53 -25 -80 7 -11 40 -29 72 -40 61 -21 77
-42 54 -70 -16 -20 -89 -19 -117 0 -25 17 -41 4 -18 -15 46 -38 149 -28 166
18 17 43 -2 68 -67 89 -67 21 -87 44 -61 70 19 20 80 21 103 3 20 -18 31 -3
12 16 -22 22 -88 27 -119 9z"/>
<path d="M2890 549 c0 -98 9 -125 45 -139 31 -12 90 5 109 31 14 21 14 21 18
-2 2 -14 11 -25 22 -27 14 -3 17 0 12 13 -3 9 -6 61 -6 116 0 81 -3 99 -15 99
-12 0 -15 -15 -15 -76 0 -70 -2 -78 -29 -105 -33 -33 -80 -39 -102 -13 -8 9
-15 52 -17 105 -3 49 -8 89 -13 89 -5 0 -9 -41 -9 -91z"/>
<path d="M1412 203 c12 -3 18 -17 21 -46 l4 -42 1 42 c2 30 7 43 20 46 9 3 -1
5 -23 5 -22 0 -32 -2 -23 -5z"/>
<path d="M1798 193 c-2 -10 -1 -29 3 -43 6 -20 7 -17 8 18 1 44 -4 54 -11 25z"/>
<path d="M1867 203 c-4 -3 -6 -25 -6 -47 1 -23 3 -33 6 -23 2 9 13 17 23 17
10 0 21 4 24 9 3 4 -6 6 -19 3 -20 -3 -25 0 -25 16 0 11 8 23 18 25 14 4 14 5
1 6 -9 0 -19 -2 -22 -6z"/>
<path d="M2447 196 c-4 -10 -3 -15 3 -11 6 3 10 1 10 -6 0 -7 3 -10 6 -6 3 3
2 13 -4 22 -8 16 -9 16 -15 1z"/>
<path d="M1130 191 c0 -6 4 -13 10 -16 6 -3 7 1 4 9 -7 18 -14 21 -14 7z"/>
<path d="M1166 174 c-10 -14 -15 -33 -13 -42 4 -15 5 -15 6 1 0 10 8 29 17 42
9 14 14 25 11 25 -2 0 -12 -12 -21 -26z"/>
<path d="M1194 165 c-11 -28 35 -61 50 -37 3 5 -5 8 -17 8 -17 -1 -22 5 -21
22 1 26 -4 28 -12 7z"/>
<path d="M1312 155 c0 -16 2 -22 5 -12 2 9 2 23 0 30 -3 6 -5 -1 -5 -18z"/>
<path d="M1340 150 c0 -39 6 -39 12 0 3 17 1 30 -4 30 -4 0 -8 -13 -8 -30z"/>
<path d="M1470 150 c0 -39 6 -39 12 0 3 17 1 30 -4 30 -4 0 -8 -13 -8 -30z"/>
<path d="M1514 150 c1 -20 7 -25 26 -26 22 -1 26 4 27 30 1 28 1 29 -6 6 -9
-33 -38 -38 -44 -8 -4 21 -4 21 -3 -2z"/>
<path d="M1684 165 c-10 -24 4 -45 28 -44 l23 2 -24 4 c-18 4 -22 10 -18 29 5
27 -1 32 -9 9z"/>
<path d="M1726 167 c3 -10 9 -15 12 -12 3 3 0 11 -7 18 -10 9 -11 8 -5 -6z"/>
<path d="M1753 165 c-3 -9 -3 -18 -1 -21 3 -3 8 4 11 16 6 23 -1 27 -10 5z"/>
<path d="M2002 150 c0 -19 2 -27 5 -17 2 9 2 25 0 35 -3 9 -5 1 -5 -18z"/>
<path d="M2129 148 c4 -28 6 -29 9 -9 2 13 0 27 -5 32 -6 6 -7 -3 -4 -23z"/>
<path d="M2154 165 c-8 -19 13 -45 35 -44 10 0 8 4 -8 10 -17 7 -22 15 -18 29
6 23 -1 27 -9 5z"/>
<path d="M2230 169 c0 -5 5 -7 10 -4 6 3 10 8 10 11 0 2 -4 4 -10 4 -5 0 -10
-5 -10 -11z"/>
<path d="M2369 148 c4 -28 6 -29 9 -9 2 13 0 27 -5 32 -6 6 -7 -3 -4 -23z"/>
<path d="M1587 159 c7 -7 15 -10 18 -7 3 3 -2 9 -12 12 -14 6 -15 5 -6 -5z"/>
<path d="M1935 150 c-10 -16 4 -30 30 -28 13 1 22 5 19 9 -2 4 -13 5 -24 2
-22 -6 -28 12 -7 20 9 4 9 6 0 6 -6 1 -15 -3 -18 -9z"/>
<path d="M2322 140 c0 -14 2 -19 5 -12 2 6 2 18 0 25 -3 6 -5 1 -5 -13z"/>
<path d="M2470 155 c0 -5 5 -17 10 -25 5 -8 10 -10 10 -5 0 6 -5 17 -10 25 -5
8 -10 11 -10 5z"/>
<path d="M1620 142 c0 -6 -8 -13 -17 -15 -16 -4 -16 -5 -1 -6 18 -1 34 16 24
26 -3 4 -6 1 -6 -5z"/>
<path d="M1277 129 c7 -7 15 -10 18 -7 3 3 -2 9 -12 12 -14 6 -15 5 -6 -5z"/>
</g>
</svg>
