<?xml version="1.0" standalone="no"?>
<!DOCTYPE svg PUBLIC "-//W3C//DTD SVG 20010904//EN"
 "http://www.w3.org/TR/2001/REC-SVG-20010904/DTD/svg10.dtd">
<svg version="1.0" xmlns="http://www.w3.org/2000/svg"
 width="128.000000pt" height="128.000000pt" viewBox="0 0 128.000000 128.000000"
 preserveAspectRatio="xMidYMid meet">

<g transform="translate(0.000000,128.000000) scale(0.100000,-0.100000)"
fill="#000000" stroke="none">
<path d="M936 1124 c-108 -20 -175 -40 -278 -84 -378 -162 -562 -466 -396
-654 51 -59 114 -81 210 -73 187 16 340 161 341 324 1 78 -17 105 -26 39 -9
-62 -37 -115 -87 -160 -47 -43 -77 -56 -126 -56 -87 0 -138 68 -139 185 0 59
5 78 30 123 78 142 284 264 585 347 l85 24 -60 -1 c-33 0 -96 -6 -139 -14z"/>
<path d="M735 942 c-160 -55 -257 -171 -258 -309 0 -36 4 -68 11 -75 9 -9 12
-4 12 23 0 18 11 57 24 84 54 117 169 175 256 130 75 -39 100 -191 48 -290
-76 -144 -279 -265 -588 -350 l-85 -24 51 0 c131 -2 322 48 479 124 237 116
388 282 402 442 8 84 -10 136 -65 193 -69 71 -176 91 -287 52z"/>
</g>
</svg>
