<?xml version="1.0" encoding="UTF-8"?>
<svg id="Layer_1" data-name="Layer 1" xmlns="http://www.w3.org/2000/svg" version="1.1" viewBox="0 0 175 80">
  <defs>
    <style>
      .cls-1 {
        fill: #fff;
        fill-rule: evenodd;
      }

      .cls-1, .cls-2, .cls-3 {
        stroke-width: 0px;
      }

      .cls-2 {
        fill: #606060;
      }

      .cls-3 {
        fill: #eb2229;
      }
    </style>
  </defs>

  <g>
    <path class="cls-3" d="M52.09,62.92c1.41-.15,2.28-.41,2.63-.77.34-.37.51-1.32.51-2.86v-15.49c0-1.27-.19-2.1-.58-2.49-.38-.39-1.24-.63-2.57-.72v-.67h19.05l.12,5.12h-1c-.24-1.64-.71-2.67-1.38-3.1-.68-.44-2.01-.65-4-.65h-4.9c-.48,0-.78.08-.92.24-.13.16-.2.48-.2.96v7.98h5.19c1.52,0,2.5-.22,2.92-.68.42-.45.76-1.37,1.02-2.74h.84v8.26h-.84c-.27-1.38-.61-2.3-1.03-2.75-.42-.45-1.38-.68-2.9-.68h-5.19v7.83c0,1.31.2,2.15.6,2.51.4.36,1.28.6,2.63.7v.66h-10.01v-.66Z"/>
    <path class="cls-3" d="M79.86,47.53v.49c-.44.01-.82.07-1.12.18-.31.11-.47.34-.47.69,0,.22.31.84.93,1.86.33.53.76,1.18,1.27,1.95.68-.93,1.18-1.66,1.51-2.19.57-.86.85-1.42.85-1.67,0-.31-.12-.51-.36-.61-.25-.11-.59-.17-1.03-.21v-.49h5.63v.49c-.59.05-1.15.21-1.66.48-.51.28-.92.64-1.24,1.09l-2.95,4.25,4.58,7.05c.59.91,1.1,1.5,1.51,1.76.41.27.89.41,1.42.44v.49h-7.21v-.49l.51-.03c.27-.02.49-.1.67-.24.18-.14.27-.31.27-.53s-.22-.71-.66-1.47c-.21-.38-.52-.89-.93-1.54-.2-.32-.48-.76-.87-1.34-.39-.56-.71-1.05-.97-1.45l-2.86,4.45c-.34.52-.54.88-.63,1.05-.08.17-.12.32-.12.43,0,.23.09.37.27.44.18.07.58.15,1.18.23v.49h-5.17v-.49c.63-.13,1.09-.29,1.4-.49.3-.2.7-.66,1.2-1.38l3.97-5.92-3.25-5.09c-.67-1.01-1.14-1.61-1.4-1.8-.25-.19-.82-.32-1.68-.4v-.49h7.42Z"/>
    <path class="cls-3" d="M106.79,40.08c1.33.38,2.1.58,2.3.58.51,0,.88-.1,1.09-.3.22-.2.4-.48.55-.86h.79l.28,7.53h-.82c-.74-1.73-1.49-3.03-2.27-3.88-1.41-1.49-3.24-2.23-5.51-2.23s-4.31.87-6.05,2.61c-1.74,1.74-2.61,4.61-2.61,8.6,0,3.3.87,5.87,2.6,7.72,1.73,1.85,3.88,2.78,6.43,2.78.43,0,.94-.04,1.52-.12.58-.08,1.13-.21,1.66-.39.85-.28,1.38-.52,1.59-.72.21-.2.32-.5.32-.9v-5.7c0-1.38-.2-2.24-.59-2.58-.39-.34-1.24-.55-2.56-.63v-.66h9.12v.66c-.88.06-1.47.2-1.76.43-.49.37-.73,1.14-.73,2.31v7.04c0,.42-1.03.98-3.08,1.68-2.05.7-4.03,1.05-5.93,1.05-3.49,0-6.44-1.02-8.83-3.06-2.64-2.25-3.97-5.26-3.97-9.05,0-3.33,1.05-6.18,3.16-8.56,2.32-2.62,5.4-3.93,9.22-3.93,1.39,0,2.75.19,4.09.58Z"/>
    <path class="cls-3" d="M115.45,63.01c1.07-.1,1.78-.29,2.13-.57.35-.29.52-.89.52-1.82v-7.88c0-1.15-.11-1.98-.32-2.47-.21-.5-.61-.74-1.18-.74-.12,0-.27.02-.46.05-.19.03-.39.07-.6.11v-.58c.66-.23,1.34-.47,2.04-.72.69-.24,1.18-.42,1.44-.52.58-.22,1.18-.47,1.79-.75.08,0,.13.03.15.09.01.06.03.18.03.36v2.86c.75-1.03,1.47-1.84,2.16-2.43.7-.58,1.42-.87,2.17-.87.6,0,1.08.18,1.46.53.37.36.56.8.56,1.34,0,.48-.14.88-.43,1.2-.29.33-.64.49-1.07.49s-.89-.2-1.33-.61c-.45-.41-.8-.61-1.06-.61-.41,0-.91.33-1.5.99-.59.66-.89,1.34-.89,2.03v7.87c0,1,.24,1.7.7,2.09.46.39,1.24.57,2.32.55v.57h-8.61v-.57Z"/>
    <path class="cls-3" d="M130.33,49.6c1.47-1.6,3.36-2.4,5.68-2.4s4.21.75,5.73,2.27c1.51,1.51,2.27,3.53,2.27,6.04,0,2.32-.73,4.34-2.2,6.05-1.46,1.71-3.36,2.57-5.69,2.57s-4.12-.82-5.68-2.46c-1.54-1.64-2.32-3.7-2.32-6.18,0-2.32.73-4.28,2.21-5.88ZM133.11,49.16c-1.17,1.06-1.75,2.88-1.75,5.48,0,2.07.47,4.01,1.41,5.8.93,1.79,2.24,2.69,3.91,2.69,1.31,0,2.32-.6,3.02-1.8.71-1.2,1.06-2.77,1.06-4.72s-.45-3.91-1.35-5.69c-.9-1.78-2.2-2.67-3.9-2.67-.92,0-1.72.3-2.39.91Z"/>
    <path class="cls-3" d="M161.73,47.85c-.7.08-1.22.2-1.56.35-.34.15-.5.46-.5.92,0,.25.04.51.11.77.08.27.18.58.3.93l3.18,8.27,3.1-7.55c.14-.32.29-.75.46-1.28.16-.53.24-.93.24-1.2,0-.43-.13-.72-.4-.87-.27-.15-.66-.26-1.17-.33v-.49h4.44v.49c-.29.06-.53.2-.71.42-.19.22-.45.74-.79,1.57l-5.59,13.78c-.05.11-.09.18-.12.23-.03.05-.09.07-.16.07-.14-.07-.22-.14-.25-.19l-4.27-10.56-4.27,10.53c-.03.06-.06.11-.1.15-.04.04-.09.06-.15.06-.14-.07-.22-.13-.24-.17l-5.22-12.88c-.57-1.42-.95-2.26-1.14-2.51-.19-.25-.56-.42-1.1-.5v-.49h6.48v.49c-.53.05-.95.15-1.23.29-.29.15-.43.46-.43.95,0,.34.24,1.17.72,2.5.28.74.64,1.65,1.07,2.72l2.01,4.88,3.09-6.6.03-.2c0-.24-.12-.67-.37-1.31-.24-.64-.49-1.21-.72-1.71-.23-.54-.5-.91-.79-1.12-.3-.21-.72-.34-1.25-.39v-.49h7.29v.49Z"/>
  </g>
  <g>
    <path class="cls-2" d="M59.33,67.96c.48.14.76.21.83.21.18,0,.32-.04.4-.11.08-.07.14-.17.19-.31h.28l.1,2.7h-.29c-.26-.62-.54-1.09-.81-1.39-.51-.53-1.17-.8-1.98-.8s-1.55.32-2.17.94c-.62.62-.94,1.65-.94,3.09,0,1.19.31,2.11.94,2.77.62.66,1.39,1,2.31,1,.15,0,.33-.01.55-.04.21-.03.4-.08.6-.14.31-.1.5-.19.57-.26.07-.07.12-.18.12-.32v-2.05c0-.49-.07-.8-.21-.93-.14-.12-.45-.19-.92-.23v-.24h3.27v.24c-.32.02-.53.07-.63.16-.17.13-.26.41-.26.83v2.53c0,.15-.37.35-1.11.6-.74.25-1.45.38-2.13.38-1.25,0-2.31-.37-3.17-1.1-.95-.81-1.43-1.89-1.43-3.25,0-1.2.38-2.22,1.14-3.07.83-.94,1.94-1.41,3.31-1.41.5,0,.99.07,1.47.21Z"/>
    <path class="cls-2" d="M62.44,76.2c.39-.03.64-.1.76-.2.13-.1.19-.32.19-.66v-2.83c0-.41-.04-.71-.11-.89-.08-.18-.22-.27-.43-.27-.04,0-.1,0-.17.01-.07,0-.14.03-.22.04v-.21c.24-.08.48-.17.73-.25.25-.09.42-.15.52-.19.21-.08.42-.17.65-.27.03,0,.04,0,.05.03,0,.02,0,.06,0,.13v1.03c.27-.37.52-.66.78-.87.25-.21.51-.31.78-.31.21,0,.39.06.52.19.13.13.2.29.2.48,0,.17-.05.32-.16.43-.1.12-.23.18-.39.18s-.32-.07-.48-.22c-.16-.15-.29-.22-.38-.22-.15,0-.33.12-.54.36-.21.23-.32.48-.32.73v2.83c0,.36.08.61.25.75.17.14.45.2.84.2v.21h-3.09v-.21Z"/>
    <path class="cls-2" d="M67.78,71.38c.53-.58,1.21-.86,2.04-.86s1.51.28,2.06.82c.54.54.81,1.27.81,2.17,0,.83-.26,1.55-.79,2.17-.52.62-1.21.92-2.05.92s-1.48-.29-2.03-.88c-.56-.59-.84-1.33-.84-2.22,0-.83.27-1.54.8-2.11ZM68.78,71.22c-.42.38-.63,1.04-.63,1.97,0,.75.17,1.44.5,2.08.34.64.81.97,1.4.97.47,0,.83-.22,1.09-.65.25-.43.38-1,.38-1.7s-.16-1.4-.48-2.04c-.33-.64-.79-.96-1.4-.96-.33,0-.62.11-.86.32Z"/>
    <path class="cls-2" d="M79.05,70.75c-.25.03-.44.07-.56.13-.12.05-.18.16-.18.33,0,.09.02.18.04.27.03.1.06.21.11.34l1.14,2.97,1.11-2.71c.05-.12.11-.27.17-.46.06-.19.09-.33.09-.43,0-.15-.05-.26-.14-.31-.1-.05-.24-.1-.42-.12v-.18h1.59v.18c-.1.02-.19.07-.25.15-.07.08-.16.27-.29.56l-2,4.95s-.03.06-.05.08c-.01.02-.03.02-.06.02-.05-.02-.08-.05-.09-.07l-1.53-3.79-1.54,3.78s-.02.04-.03.06c-.01.01-.03.02-.05.02-.05-.02-.08-.04-.09-.06l-1.87-4.62c-.21-.51-.34-.81-.41-.9-.07-.09-.2-.15-.4-.18v-.18h2.33v.18c-.2.02-.34.06-.44.11-.1.05-.16.16-.16.34,0,.12.09.42.26.9.1.27.23.59.39.97l.72,1.76,1.11-2.38v-.07c.01-.08-.03-.24-.12-.47-.09-.23-.17-.43-.26-.62-.08-.19-.18-.33-.29-.4-.11-.07-.26-.12-.45-.14v-.18h2.62v.18Z"/>
    <path class="cls-2" d="M86.85,71.13c.45.41.67.99.67,1.73h-3.98c.04.97.26,1.67.66,2.12.4.44.87.66,1.41.66.44,0,.81-.11,1.11-.34.3-.23.58-.56.83-.98l.22.08c-.17.53-.49,1.02-.96,1.47-.47.45-1.05.68-1.73.68-.79,0-1.4-.3-1.82-.89-.43-.6-.64-1.28-.64-2.05,0-.84.25-1.57.75-2.18.5-.61,1.14-.92,1.94-.92.59,0,1.1.2,1.55.61ZM83.84,71.61c-.13.23-.23.51-.29.86h2.64c-.05-.42-.13-.73-.24-.94-.2-.37-.55-.55-1.03-.55s-.84.21-1.09.63Z"/>
    <path class="cls-2" d="M88.32,76.23c.39-.04.65-.12.79-.24.13-.12.2-.35.2-.7v-6.12c0-.27-.02-.47-.07-.57-.08-.18-.25-.26-.51-.26-.06,0-.12,0-.19.02-.07.01-.16.03-.26.06v-.21c.56-.15,1.25-.35,2.04-.6.03,0,.05.01.05.04,0,.02.01.08.01.16v7.52c0,.36.06.6.19.7.13.11.39.18.78.21v.17h-3.03v-.17Z"/>
    <path class="cls-2" d="M91.89,76.23c.39-.04.65-.12.79-.24.14-.12.21-.35.21-.7v-6.12c0-.27-.02-.47-.07-.57-.08-.18-.25-.26-.51-.26-.06,0-.12,0-.19.02-.07.01-.16.03-.26.06v-.21c.56-.15,1.24-.35,2.04-.6.03,0,.05.01.05.04,0,.02,0,.08,0,.16v7.52c0,.36.06.6.19.7.13.11.39.18.78.21v.17h-3.04v-.17Z"/>
    <path class="cls-2" d="M98.58,70.64h2.64v.18c-.21,0-.36.02-.46.06-.19.05-.29.16-.29.32,0,.06.01.12.03.18.02.06.06.15.11.28l1.45,3.13,1.2-3.16s.03-.11.06-.23c.03-.12.04-.2.04-.24,0-.11-.04-.19-.11-.25-.08-.05-.17-.08-.29-.09h-.2v-.19h1.73v.18c-.17.02-.3.08-.39.18-.09.1-.16.24-.22.41l-1.98,5.23c-.34.9-.67,1.55-.98,1.96-.31.41-.71.61-1.19.61-.23,0-.45-.06-.66-.18-.2-.11-.31-.3-.31-.55,0-.17.06-.31.18-.41.12-.11.28-.16.46-.16.11,0,.27.04.48.12.21.08.36.12.45.12.23,0,.48-.28.73-.85.26-.56.38-.94.38-1.12,0-.04,0-.08-.02-.14-.01-.05-.03-.1-.04-.14l-1.98-4.27c-.14-.31-.27-.51-.37-.61-.11-.1-.27-.16-.47-.19v-.18Z"/>
    <path class="cls-2" d="M105.95,71.38c.53-.58,1.21-.86,2.04-.86s1.52.28,2.06.82c.54.54.82,1.27.82,2.17,0,.83-.26,1.55-.79,2.17-.53.62-1.21.92-2.05.92s-1.48-.29-2.04-.88c-.56-.59-.83-1.33-.83-2.22,0-.83.27-1.54.79-2.11ZM106.95,71.22c-.42.38-.63,1.04-.63,1.97,0,.75.17,1.44.5,2.08.34.64.81.97,1.41.97.47,0,.83-.22,1.08-.65.25-.43.38-1,.38-1.7s-.16-1.4-.49-2.04c-.32-.64-.79-.96-1.4-.96-.33,0-.62.11-.86.32Z"/>
    <path class="cls-2" d="M113.23,70.59v4.02c0,.29.04.51.12.68.16.32.44.48.85.48.29,0,.56-.1.84-.28.15-.11.31-.25.47-.43v-3.44c0-.32-.06-.53-.19-.63-.12-.1-.37-.16-.75-.18v-.21h2.03v4.42c0,.28.05.48.15.59.1.11.32.15.65.14v.17c-.23.06-.4.11-.51.15-.11.03-.29.09-.55.17-.11.04-.35.13-.71.27-.02,0-.03,0-.04-.03,0-.02,0-.04,0-.07v-1.01c-.29.34-.55.59-.78.75-.35.25-.73.37-1.13.37-.36,0-.71-.13-1.03-.39-.32-.25-.49-.68-.49-1.28v-3.26c0-.33-.07-.55-.22-.67-.09-.07-.29-.12-.59-.15v-.18h1.87Z"/>
    <path class="cls-2" d="M117.72,76.2c.39-.03.64-.1.77-.2.12-.1.19-.32.19-.66v-2.83c0-.41-.04-.71-.12-.89-.08-.18-.22-.27-.42-.27-.04,0-.09,0-.17.01-.07,0-.14.03-.21.04v-.21c.24-.08.48-.17.73-.25.25-.09.42-.15.52-.19.21-.08.43-.17.65-.27.03,0,.04,0,.05.03.01.02.01.06.01.13v1.03c.27-.37.53-.66.78-.87.25-.21.51-.31.78-.31.21,0,.39.06.52.19.13.13.2.29.2.48,0,.17-.05.32-.15.43-.1.12-.23.18-.39.18s-.32-.07-.48-.22c-.16-.15-.29-.22-.38-.22-.15,0-.33.12-.54.36-.21.23-.32.48-.32.73v2.83c0,.36.09.61.25.75.17.14.45.2.84.2v.21h-3.09v-.21Z"/>
    <path class="cls-2" d="M125.18,67.9h7.26l.07,2.18h-.31c-.15-.68-.34-1.13-.57-1.34-.23-.21-.72-.31-1.46-.31h-.72v6.57c0,.49.08.8.23.92.15.12.49.2,1.02.23v.24h-3.74v-.24c.54-.04.88-.13,1.02-.27.13-.14.2-.49.2-1.03v-6.42h-.72c-.71,0-1.19.1-1.45.31-.26.2-.45.65-.58,1.34h-.31l.08-2.18Z"/>
    <path class="cls-2" d="M132.39,76.2c.39-.03.64-.1.77-.2.12-.1.19-.32.19-.66v-2.83c0-.41-.04-.71-.11-.89-.08-.18-.22-.27-.42-.27-.04,0-.1,0-.17.01-.07,0-.14.03-.22.04v-.21c.24-.08.48-.17.73-.25.25-.09.42-.15.52-.19.21-.08.43-.17.65-.27.03,0,.04,0,.05.03,0,.02.01.06.01.13v1.03c.27-.37.53-.66.78-.87.25-.21.51-.31.77-.31.22,0,.39.06.52.19.14.13.2.29.2.48,0,.17-.05.32-.15.43-.1.12-.23.18-.39.18s-.32-.07-.48-.22c-.16-.15-.29-.22-.38-.22-.15,0-.32.12-.54.36-.21.23-.32.48-.32.73v2.83c0,.36.08.61.25.75.17.14.45.2.84.2v.21h-3.09v-.21Z"/>
    <path class="cls-2" d="M137.99,73.64c.39-.25,1.15-.59,2.3-1.02v-.53c0-.42-.04-.72-.12-.89-.14-.28-.44-.42-.89-.42-.22,0-.42.05-.61.16-.19.11-.29.27-.29.46,0,.05,0,.13.03.25.02.12.03.19.03.23,0,.23-.08.4-.23.49-.09.06-.19.08-.32.08-.19,0-.33-.06-.43-.18-.1-.12-.15-.26-.15-.41,0-.29.18-.6.54-.92.36-.32.89-.48,1.59-.48.81,0,1.36.27,1.65.79.15.29.23.71.23,1.26v2.52c0,.24.02.41.05.5.06.16.17.25.34.25.1,0,.18-.01.24-.05.06-.03.17-.1.33-.21v.32c-.14.16-.28.3-.43.4-.23.16-.47.24-.72.24-.28,0-.49-.09-.62-.28-.13-.18-.2-.4-.21-.66-.32.28-.59.48-.82.62-.38.22-.74.34-1.08.34-.36,0-.67-.13-.94-.38-.26-.25-.4-.57-.4-.96,0-.61.31-1.11.91-1.52ZM140.29,72.93c-.48.16-.88.33-1.19.52-.6.37-.9.79-.9,1.27,0,.38.12.66.37.84.16.12.34.18.54.18.28,0,.54-.08.79-.23.26-.15.38-.35.38-.59v-1.99Z"/>
    <path class="cls-2" d="M146.19,70.68c.17.09.33.21.49.36v-1.99c0-.25-.03-.43-.08-.53-.06-.1-.19-.14-.41-.14-.05,0-.09,0-.13,0-.04,0-.12.01-.25.02v-.21l.51-.13c.19-.05.38-.11.56-.16.19-.05.35-.11.49-.16.07-.02.18-.06.34-.12h.04s-.01.67-.01.67c0,.24,0,.48-.01.74,0,.25,0,.5,0,.75v5.12c-.01.27.02.46.09.57.06.11.24.16.53.16.04,0,.09,0,.13,0,.05,0,.1,0,.14-.02v.21s-.33.11-.91.31l-.98.37-.04-.06v-.77c-.24.26-.44.44-.61.55-.3.19-.66.28-1.06.28-.71,0-1.29-.27-1.73-.82-.44-.55-.66-1.19-.66-1.91,0-.91.26-1.69.79-2.34.53-.65,1.17-.97,1.94-.97.31,0,.59.06.84.2ZM146.37,75.56c.2-.19.3-.38.3-.54v-2.69c0-.54-.15-.92-.44-1.15-.29-.22-.57-.34-.85-.34-.53,0-.94.23-1.23.7-.29.47-.44,1.04-.44,1.72s.15,1.27.47,1.8c.31.53.78.79,1.39.79.33,0,.59-.1.79-.29Z"/>
    <path class="cls-2" d="M148.98,76.23c.45-.04.73-.12.85-.23.12-.11.18-.41.18-.9v-2.99c0-.27-.02-.46-.06-.56-.06-.17-.2-.26-.4-.26-.04,0-.09,0-.13.01-.05.01-.17.04-.38.1v-.2l.27-.08c.74-.24,1.24-.42,1.53-.54.12-.05.19-.07.23-.07,0,.03.01.06.01.09v4.5c0,.48.06.78.17.9.11.12.38.2.78.23v.17h-3.05v-.17ZM149.98,67.84c.13-.13.28-.19.46-.19s.33.06.46.19c.13.12.19.28.19.47s-.07.33-.19.46c-.12.13-.28.19-.46.19s-.34-.06-.46-.19c-.13-.12-.19-.28-.19-.46s.06-.33.19-.46Z"/>
    <path class="cls-2" d="M152.53,76.23c.3-.04.51-.11.62-.22.12-.11.18-.36.18-.74v-3.18c0-.27-.02-.46-.07-.56-.08-.16-.24-.24-.49-.24-.04,0-.08,0-.12,0-.04,0-.09.01-.14.02v-.22c.17-.05.57-.18,1.21-.39l.59-.19s.05,0,.05.03c0,.02,0,.05,0,.09v.92c.38-.36.69-.61.9-.74.33-.2.66-.3,1.01-.3.28,0,.54.08.77.24.45.32.68.88.68,1.7v2.93c0,.3.06.52.18.65.12.13.32.2.6.21v.17h-2.68v-.17c.3-.04.52-.13.64-.26.12-.13.18-.4.18-.83v-2.68c0-.36-.07-.66-.2-.9-.13-.23-.38-.35-.74-.35-.24,0-.49.08-.75.25-.14.1-.33.25-.55.48v3.51c0,.3.06.5.2.6.13.1.34.16.63.17v.17h-2.74v-.17Z"/>
    <path class="cls-2" d="M159.91,73.63c-.21-.32-.31-.68-.31-1.09,0-.49.2-.95.58-1.39.39-.44.94-.66,1.65-.66.3,0,.64.07,1.01.21.37.15.72.22,1.06.22.09,0,.22,0,.4,0,.18,0,.3,0,.38,0h.08v.51h-1.08c.08.18.13.33.18.46.07.24.11.47.11.69,0,.48-.19.92-.59,1.32-.4.4-.93.6-1.6.6-.1,0-.29-.02-.57-.05-.12,0-.28.1-.48.3-.2.21-.3.37-.3.5s.14.23.44.3c.19.04.41.06.64.06,1.08,0,1.81.06,2.2.18.63.2.95.62.95,1.26s-.37,1.19-1.11,1.58c-.74.4-1.48.59-2.24.59-.68,0-1.23-.14-1.63-.42-.4-.28-.6-.57-.6-.88,0-.15.05-.29.16-.44.11-.14.32-.36.63-.64l.41-.37.07-.08c-.19-.07-.33-.15-.43-.22-.17-.13-.25-.28-.25-.45,0-.16.07-.32.22-.51.14-.19.45-.49.92-.91-.38-.13-.67-.35-.89-.67ZM160.57,78.29c.4.13.85.2,1.36.2.69,0,1.26-.12,1.69-.36.44-.24.65-.54.65-.89,0-.28-.18-.47-.53-.56-.22-.05-.63-.09-1.24-.09-.16,0-.32-.01-.49-.02-.17,0-.33-.01-.47-.02-.09,0-.24-.02-.45-.05-.21-.03-.36-.06-.46-.08-.05,0-.17.13-.37.4-.2.26-.3.51-.3.74,0,.35.2.59.59.73ZM162.56,73.99c.25-.2.38-.55.38-1.05,0-.4-.1-.85-.3-1.35-.2-.49-.54-.74-1.01-.74-.41,0-.69.19-.85.58-.08.2-.11.46-.11.76,0,.51.12.97.37,1.37.25.41.56.61.96.61.23,0,.42-.06.57-.18Z"/>
  </g>
</svg>