<?xml version="1.0" encoding="UTF-8"?>
<svg id="Layer_1" xmlns="http://www.w3.org/2000/svg" version="1.1" viewBox="0 0 595.28 300">
  <!-- Generator: Adobe Illustrator 29.5.0, SVG Export Plug-In . SVG Version: 2.1.0 Build 137)  -->
  <defs>
    <style>
      .st0 {
        fill: #eb2229;
      }

      .st1 {
        fill: #fff;
        fill-rule: evenodd;
      }

      .st2 {
        fill: #606060;
      }
    </style>
  </defs>
  <g>
    <rect class="st0" x="15.49" y="17.63" width="154.27" height="257.59"/>
    <g>
      <polyline class="st1" points="39.7 171.48 121.26 171.48 133.69 161.34 121.03 151.64 39.7 151.64"/>
      <polyline class="st1" points="39.7 246.67 69.72 246.67 82.14 236.53 69.48 226.81 39.7 226.81"/>
      <polyline class="st1" points="39.7 210.85 94.12 210.85 106.54 200.7 93.88 191.01 39.7 191.01"/>
    </g>
  </g>
  <g>
    <path class="st0" d="M185.79,225.84c4.72-.5,7.66-1.37,8.82-2.59,1.14-1.22,1.72-4.42,1.72-9.58v-51.91c0-4.25-.65-7.04-1.93-8.35-1.29-1.3-4.16-2.11-8.61-2.42v-2.23h63.85l.41,17.16h-3.33c-.82-5.49-2.37-8.94-4.62-10.4-2.26-1.46-6.74-2.18-13.41-2.18h-16.43c-1.6,0-2.63.26-3.08.81-.45.55-.67,1.62-.67,3.22v26.74h17.38c5.11,0,8.37-.75,9.77-2.27,1.41-1.52,2.53-4.58,3.4-9.19h2.81v27.68h-2.81c-.91-4.64-2.05-7.72-3.46-9.21-1.4-1.51-4.64-2.27-9.71-2.27h-17.38v26.23c0,4.38.67,7.19,2.02,8.41,1.35,1.22,4.28,2.01,8.81,2.35v2.22h-33.53v-2.22Z"/>
    <path class="st0" d="M278.85,174.27v1.64c-1.49.04-2.74.24-3.77.61-1.04.37-1.56,1.15-1.56,2.32,0,.73,1.04,2.82,3.1,6.24,1.11,1.78,2.54,3.96,4.24,6.54,2.26-3.13,3.95-5.58,5.06-7.35,1.91-2.89,2.86-4.75,2.86-5.61,0-1.02-.4-1.7-1.22-2.05-.83-.35-1.98-.58-3.46-.7v-1.64h18.85v1.64c-1.99.16-3.84.7-5.56,1.61-1.71.93-3.1,2.14-4.16,3.66l-9.9,14.25,15.35,23.61c1.99,3.05,3.68,5.01,5.06,5.91,1.38.89,2.97,1.38,4.77,1.46v1.64h-24.17v-1.64l1.69-.12c.9-.07,1.65-.35,2.26-.81.6-.47.91-1.05.91-1.76s-.73-2.38-2.22-4.91c-.69-1.27-1.73-2.99-3.1-5.17-.66-1.07-1.62-2.56-2.91-4.47-1.3-1.89-2.37-3.53-3.26-4.88l-9.57,14.92c-1.14,1.75-1.83,2.94-2.11,3.52-.27.58-.41,1.07-.41,1.45,0,.75.31,1.24.9,1.48.61.23,1.93.49,3.96.75v1.64h-17.32v-1.64c2.11-.42,3.66-.98,4.68-1.64,1.01-.66,2.35-2.2,4.04-4.62l13.29-19.82-10.89-17.04c-2.26-3.4-3.83-5.4-4.68-6.03-.85-.62-2.73-1.07-5.62-1.35v-1.64h24.87Z"/>
    <path class="st0" d="M369.11,149.29c4.47,1.28,7.05,1.94,7.71,1.94,1.72,0,2.93-.33,3.66-1,.73-.66,1.34-1.62,1.85-2.87h2.63l.94,25.23h-2.74c-2.47-5.81-5-10.14-7.61-12.99-4.72-4.99-10.87-7.48-18.45-7.48s-14.45,2.91-20.28,8.75c-5.83,5.83-8.74,15.43-8.74,28.81,0,11.04,2.9,19.67,8.73,25.87,5.81,6.21,12.99,9.31,21.54,9.31,1.44,0,3.14-.14,5.09-.41,1.95-.28,3.8-.7,5.55-1.29,2.85-.94,4.64-1.74,5.33-2.42.7-.68,1.06-1.68,1.06-3.01v-19.09c0-4.64-.67-7.52-1.97-8.65-1.3-1.15-4.16-1.85-8.58-2.12v-2.22h30.55v2.22c-2.96.19-4.93.68-5.9,1.46-1.65,1.26-2.46,3.83-2.46,7.73v23.58c0,1.41-3.44,3.28-10.32,5.62-6.88,2.36-13.52,3.52-19.89,3.52-11.7,0-21.57-3.42-29.6-10.25-8.86-7.53-13.3-17.64-13.3-30.32,0-11.16,3.53-20.71,10.59-28.68,7.77-8.77,18.08-13.16,30.91-13.16,4.65,0,9.21.65,13.71,1.94Z"/>
    <path class="st0" d="M398.13,226.14c3.59-.32,5.97-.96,7.15-1.91,1.17-.96,1.74-2.99,1.74-6.11v-26.4c0-3.86-.35-6.63-1.08-8.28-.71-1.66-2.04-2.49-3.94-2.49-.4,0-.91.05-1.56.15-.65.1-1.31.22-2.02.38v-1.93c2.22-.78,4.51-1.58,6.83-2.41,2.32-.81,3.94-1.4,4.84-1.74,1.94-.74,3.94-1.58,6-2.52.28,0,.45.1.51.3.05.18.09.59.09,1.22v9.59c2.5-3.46,4.91-6.18,7.23-8.13,2.34-1.95,4.75-2.92,7.26-2.92,2,0,3.63.6,4.88,1.77,1.25,1.21,1.87,2.69,1.87,4.48,0,1.6-.48,2.94-1.43,4.04-.96,1.1-2.16,1.64-3.6,1.64s-2.98-.68-4.47-2.04c-1.51-1.37-2.69-2.05-3.55-2.05-1.36,0-3.04,1.1-5.03,3.31-1.98,2.2-2.98,4.47-2.98,6.82v26.39c0,3.35.79,5.7,2.34,7.01,1.56,1.3,4.16,1.92,7.79,1.85v1.92h-28.86v-1.92Z"/>
    <path class="st0" d="M447.97,181.21c4.93-5.36,11.27-8.04,19.04-8.04s14.12,2.53,19.19,7.59c5.07,5.07,7.62,11.82,7.62,20.24,0,7.78-2.46,14.53-7.38,20.26-4.91,5.74-11.26,8.62-19.08,8.62s-13.82-2.76-19.02-8.26c-5.17-5.51-7.77-12.41-7.77-20.72,0-7.77,2.46-14.33,7.4-19.69ZM457.31,179.72c-3.92,3.54-5.87,9.66-5.87,18.37,0,6.95,1.57,13.42,4.73,19.44,3.13,6,7.51,9.01,13.09,9.01,4.39,0,7.76-2.02,10.12-6.03,2.37-4.02,3.55-9.29,3.55-15.8s-1.5-13.11-4.53-19.08c-3-5.98-7.36-8.96-13.08-8.96-3.09,0-5.76,1.02-8.03,3.05Z"/>
    <path class="st0" d="M553.2,175.33c-2.34.28-4.08.68-5.22,1.19-1.12.51-1.69,1.53-1.69,3.07,0,.83.12,1.69.38,2.58.25.9.59,1.93,1.02,3.11l10.66,27.71,10.38-25.31c.47-1.09.97-2.53,1.54-4.3.53-1.77.8-3.11.8-4.01,0-1.44-.44-2.42-1.34-2.93-.9-.51-2.21-.87-3.93-1.11v-1.63h14.87v1.63c-.97.2-1.77.67-2.39,1.41-.64.74-1.51,2.49-2.64,5.25l-18.73,46.18c-.16.36-.29.61-.41.78-.11.15-.29.23-.52.23-.48-.25-.75-.47-.83-.63l-14.3-35.38-14.31,35.3c-.09.2-.19.36-.32.5-.14.14-.29.21-.5.21-.46-.23-.73-.43-.81-.57l-17.5-43.16c-1.91-4.77-3.19-7.58-3.8-8.43-.63-.84-1.86-1.41-3.68-1.69v-1.63h21.71v1.63c-1.79.16-3.17.49-4.13.97-.96.5-1.44,1.56-1.44,3.17,0,1.14.81,3.93,2.42,8.39.95,2.49,2.14,5.53,3.6,9.1l6.74,16.35,10.34-22.13.11-.68c0-.8-.41-2.26-1.25-4.4-.82-2.14-1.63-4.05-2.41-5.73-.79-1.8-1.66-3.05-2.65-3.75-.99-.69-2.4-1.13-4.19-1.29v-1.63h24.43v1.63Z"/>
  </g>
  <g>
    <path class="st2" d="M210.06,242.74c1.6.46,2.53.69,2.77.69.62,0,1.06-.12,1.33-.36.25-.24.48-.58.65-1.04h.95l.33,9.06h-.98c-.89-2.09-1.8-3.64-2.72-4.67-1.7-1.78-3.91-2.69-6.63-2.69s-5.18,1.06-7.28,3.16c-2.09,2.09-3.14,5.54-3.14,10.34,0,3.97,1.05,7.06,3.14,9.28,2.09,2.23,4.67,3.34,7.73,3.34.52,0,1.11-.05,1.83-.14.69-.1,1.36-.26,2-.47,1.02-.34,1.67-.62,1.91-.87.25-.24.39-.6.39-1.07v-6.86c0-1.65-.24-2.7-.72-3.11-.46-.4-1.49-.65-3.08-.75v-.79h10.97v.79c-1.07.06-1.77.25-2.12.52-.58.45-.88,1.37-.88,2.78v8.46c0,.51-1.24,1.17-3.71,2.02-2.47.83-4.85,1.26-7.14,1.26-4.2,0-7.74-1.23-10.63-3.68-3.18-2.7-4.78-6.33-4.78-10.88,0-4.01,1.27-7.45,3.81-10.3,2.78-3.16,6.49-4.74,11.1-4.74,1.66,0,3.31.25,4.92.7Z"/>
    <path class="st2" d="M220.48,270.33c1.3-.11,2.15-.33,2.56-.68.42-.34.63-1.07.63-2.2v-9.48c0-1.38-.14-2.37-.38-2.97-.25-.6-.74-.89-1.43-.89-.13,0-.32.02-.55.05-.22.03-.47.09-.72.14v-.7c.79-.26,1.61-.56,2.46-.85.83-.29,1.42-.51,1.74-.63.7-.27,1.41-.57,2.16-.9.09,0,.15.03.17.1.02.06.03.21.03.44v3.44c.9-1.24,1.76-2.21,2.6-2.91.84-.71,1.71-1.04,2.6-1.04.72,0,1.3.21,1.75.63.45.42.68.96.68,1.61,0,.57-.17,1.06-.52,1.44-.34.4-.78.59-1.29.59s-1.06-.25-1.6-.73c-.53-.49-.97-.74-1.27-.74-.49,0-1.1.4-1.8,1.19-.71.79-1.07,1.61-1.07,2.45v9.47c0,1.21.27,2.05.84,2.51.56.47,1.5.68,2.8.66v.69h-10.36v-.69Z"/>
    <path class="st2" d="M238.38,254.2c1.77-1.93,4.05-2.9,6.83-2.9s5.07.93,6.9,2.73c1.82,1.82,2.73,4.24,2.73,7.28,0,2.78-.88,5.2-2.65,7.26-1.76,2.06-4.05,3.09-6.85,3.09s-4.95-.98-6.82-2.96c-1.88-1.97-2.81-4.45-2.81-7.43,0-2.8.89-5.15,2.67-7.08ZM241.72,253.66c-1.4,1.28-2.1,3.47-2.1,6.6,0,2.5.56,4.82,1.69,6.98,1.14,2.15,2.7,3.24,4.7,3.24,1.58,0,2.79-.73,3.64-2.17.85-1.45,1.26-3.33,1.26-5.68s-.53-4.7-1.6-6.84c-1.09-2.15-2.65-3.22-4.7-3.22-1.11,0-2.07.36-2.89,1.09Z"/>
    <path class="st2" d="M276.15,252.08c-.83.1-1.46.24-1.87.44-.4.17-.61.55-.61,1.1,0,.31.05.6.14.92.1.32.21.7.36,1.12l3.83,9.94,3.72-9.08c.16-.39.35-.91.56-1.55.2-.63.29-1.11.29-1.44,0-.51-.16-.87-.48-1.04-.32-.18-.79-.32-1.41-.41v-.59h5.34v.59c-.34.07-.64.24-.85.51-.23.26-.55.9-.96,1.89l-6.71,16.58c-.06.12-.11.21-.15.27-.04.06-.11.08-.19.08-.17-.08-.26-.16-.3-.22l-5.12-12.69-5.15,12.66c-.03.07-.06.14-.11.2-.05.04-.11.06-.17.06-.17-.08-.27-.15-.31-.21l-6.27-15.48c-.69-1.72-1.14-2.72-1.37-3.03-.22-.3-.67-.51-1.32-.61v-.59h7.81v.59c-.66.06-1.15.19-1.49.36-.34.17-.52.55-.52,1.14,0,.41.3,1.41.87,3.01.34.89.77,1.99,1.3,3.27l2.42,5.88,3.72-7.96.04-.24c0-.28-.15-.81-.46-1.57-.3-.78-.58-1.46-.86-2.06-.28-.65-.6-1.1-.96-1.35-.36-.25-.86-.41-1.51-.47v-.59h8.77v.59Z"/>
    <path class="st2" d="M302.27,253.36c1.49,1.36,2.23,3.31,2.23,5.8h-13.35c.14,3.25.88,5.61,2.21,7.09,1.33,1.48,2.91,2.21,4.73,2.21,1.46,0,2.71-.37,3.71-1.14,1.01-.78,1.94-1.88,2.8-3.28l.73.26c-.57,1.78-1.64,3.42-3.22,4.93-1.57,1.52-3.51,2.27-5.78,2.27-2.64,0-4.68-.99-6.11-2.97-1.43-2-2.15-4.29-2.15-6.88,0-2.82.83-5.25,2.5-7.29,1.67-2.04,3.83-3.07,6.52-3.07,1.98,0,3.7.68,5.19,2.05ZM292.2,254.95c-.45.77-.76,1.72-.96,2.88h8.86c-.15-1.42-.43-2.46-.8-3.14-.68-1.23-1.83-1.86-3.45-1.86s-2.81.71-3.65,2.12Z"/>
    <path class="st2" d="M307.21,270.44c1.3-.13,2.19-.39,2.66-.79.45-.4.68-1.19.68-2.35v-20.52c0-.92-.08-1.57-.23-1.91-.27-.59-.85-.88-1.7-.88-.2,0-.41.02-.64.05-.23.05-.53.11-.88.19v-.7c1.89-.49,4.17-1.18,6.83-2.01.1,0,.16.04.17.13.03.07.04.26.04.54v25.21c0,1.21.2,2,.62,2.35.43.36,1.29.59,2.61.69v.58h-10.17v-.58Z"/>
    <path class="st2" d="M319.16,270.44c1.31-.13,2.19-.39,2.65-.79.46-.4.69-1.19.69-2.35v-20.52c0-.92-.07-1.57-.23-1.91-.28-.59-.84-.88-1.7-.88-.2,0-.4.02-.65.05-.22.05-.52.11-.86.19v-.7c1.89-.49,4.16-1.18,6.83-2.01.1,0,.16.04.18.13.02.07.02.26.02.54v25.21c0,1.21.22,2,.63,2.35.42.36,1.29.59,2.61.69v.58h-10.18v-.58Z"/>
    <path class="st2" d="M341.59,251.71h8.86v.59c-.69.02-1.22.07-1.55.2-.64.18-.96.54-.96,1.09,0,.21.04.41.11.62.07.21.2.52.37.94l4.87,10.5,4.01-10.59c.04-.11.1-.38.2-.78.08-.41.13-.68.13-.81,0-.38-.13-.64-.38-.82-.26-.17-.58-.27-.97-.3l-.65-.04v-.59h5.79v.59c-.57.07-1.01.27-1.29.61-.29.33-.53.79-.75,1.38l-6.62,17.53c-1.14,3.02-2.24,5.21-3.29,6.57-1.05,1.37-2.38,2.04-4,2.04-.78,0-1.51-.2-2.21-.59-.67-.38-1.03-1-1.03-1.86,0-.57.21-1.02.62-1.38.41-.36.93-.54,1.54-.54.37,0,.9.14,1.62.41.7.26,1.22.39,1.52.39.78,0,1.6-.95,2.45-2.86.86-1.89,1.29-3.16,1.29-3.77,0-.13-.02-.27-.06-.46-.04-.17-.08-.34-.13-.48l-6.62-14.32c-.48-1.04-.9-1.71-1.26-2.05-.36-.33-.89-.54-1.58-.63v-.59Z"/>
    <path class="st2" d="M366.27,254.2c1.77-1.93,4.05-2.9,6.83-2.9s5.09.93,6.89,2.73c1.83,1.82,2.74,4.24,2.74,7.28,0,2.78-.88,5.2-2.65,7.26-1.77,2.06-4.05,3.09-6.85,3.09s-4.97-.98-6.83-2.96c-1.87-1.97-2.79-4.45-2.79-7.43,0-2.8.89-5.15,2.66-7.08ZM369.62,253.66c-1.41,1.28-2.11,3.47-2.11,6.6,0,2.5.57,4.82,1.69,6.98,1.14,2.15,2.71,3.24,4.72,3.24,1.56,0,2.78-.73,3.62-2.17.85-1.45,1.28-3.33,1.28-5.68s-.55-4.7-1.63-6.84c-1.09-2.15-2.65-3.22-4.69-3.22-1.11,0-2.07.36-2.89,1.09Z"/>
    <path class="st2" d="M390.69,251.56v13.46c0,.96.14,1.72.4,2.28.53,1.07,1.47,1.6,2.85,1.6.96,0,1.89-.32,2.8-.95.51-.36,1.04-.82,1.58-1.45v-11.52c0-1.07-.21-1.78-.64-2.12-.41-.33-1.25-.54-2.52-.62v-.69h6.79v14.8c0,.95.17,1.61.51,1.96.34.35,1.07.51,2.18.47v.58c-.77.22-1.34.37-1.7.49-.38.1-.99.29-1.83.57-.37.13-1.16.42-2.39.9-.06,0-.11-.03-.12-.1-.03-.06-.03-.13-.03-.22v-3.38c-.96,1.14-1.83,1.98-2.62,2.52-1.19.84-2.45,1.26-3.78,1.26-1.22,0-2.37-.43-3.45-1.31-1.08-.85-1.63-2.28-1.63-4.3v-10.92c0-1.11-.25-1.86-.72-2.24-.3-.23-.96-.4-1.97-.49v-.6h6.28Z"/>
    <path class="st2" d="M405.74,270.33c1.29-.11,2.15-.33,2.57-.68.41-.34.64-1.07.64-2.2v-9.48c0-1.38-.14-2.37-.4-2.97-.27-.6-.73-.89-1.42-.89-.14,0-.31.02-.56.05-.22.03-.47.09-.71.14v-.7c.8-.26,1.61-.56,2.45-.85.84-.29,1.41-.51,1.73-.63.7-.27,1.43-.57,2.16-.9.09,0,.15.03.16.1.04.06.05.21.05.44v3.44c.9-1.24,1.76-2.21,2.6-2.91.84-.71,1.7-1.04,2.6-1.04.71,0,1.3.21,1.75.63.44.42.67.96.67,1.61,0,.57-.17,1.06-.52,1.44-.34.4-.77.59-1.29.59s-1.07-.25-1.61-.73c-.54-.49-.97-.74-1.27-.74-.49,0-1.09.4-1.82,1.19-.7.79-1.06,1.61-1.06,2.45v9.47c0,1.21.29,2.05.84,2.51.56.47,1.5.68,2.8.66v.69h-10.37v-.69Z"/>
    <path class="st2" d="M430.74,242.54h24.32l.23,7.32h-1.04c-.51-2.29-1.14-3.79-1.92-4.49-.78-.69-2.41-1.04-4.9-1.04h-2.4v22.03c0,1.65.27,2.68.78,3.08.52.39,1.65.65,3.42.78v.79h-12.54v-.79c1.81-.14,2.95-.45,3.41-.9.44-.46.66-1.63.66-3.47v-21.53h-2.42c-2.38,0-4,.35-4.86,1.03-.87.69-1.52,2.18-1.95,4.49h-1.05l.26-7.32Z"/>
    <path class="st2" d="M454.87,270.33c1.3-.11,2.15-.33,2.57-.68.42-.34.63-1.07.63-2.2v-9.48c0-1.38-.13-2.37-.38-2.97-.26-.6-.74-.89-1.42-.89-.14,0-.32.02-.55.05-.24.03-.47.09-.74.14v-.7c.8-.26,1.62-.56,2.46-.85.84-.29,1.42-.51,1.73-.63.7-.27,1.43-.57,2.17-.9.09,0,.15.03.17.1.03.06.04.21.04.44v3.44c.89-1.24,1.76-2.21,2.6-2.91.83-.71,1.7-1.04,2.59-1.04.73,0,1.3.21,1.76.63.46.42.68.96.68,1.61,0,.57-.17,1.06-.51,1.44-.35.4-.78.59-1.3.59s-1.06-.25-1.6-.73c-.54-.49-.96-.74-1.28-.74-.49,0-1.09.4-1.8,1.19-.72.79-1.08,1.61-1.08,2.45v9.47c0,1.21.28,2.05.84,2.51.57.47,1.51.68,2.81.66v.69h-10.37v-.69Z"/>
    <path class="st2" d="M473.63,261.76c1.3-.85,3.87-1.99,7.72-3.43v-1.79c0-1.42-.14-2.42-.41-2.98-.48-.94-1.47-1.4-2.97-1.4-.73,0-1.4.18-2.04.54-.64.38-.97.9-.97,1.56,0,.17.03.45.1.85.07.4.11.65.11.77,0,.78-.26,1.33-.78,1.64-.3.19-.64.27-1.06.27-.63,0-1.11-.2-1.45-.62-.34-.41-.51-.88-.51-1.37,0-.99.61-2.01,1.83-3.07,1.21-1.08,2.98-1.62,5.32-1.62,2.71,0,4.56.89,5.53,2.66.51.96.77,2.36.77,4.21v8.43c0,.81.07,1.38.17,1.68.2.54.57.82,1.14.82.32,0,.59-.05.79-.15.21-.1.58-.33,1.1-.71v1.09c-.46.55-.93,1-1.45,1.36-.78.53-1.58.79-2.4.79-.94,0-1.65-.31-2.07-.94-.43-.6-.66-1.34-.7-2.2-1.07.93-1.97,1.62-2.74,2.07-1.27.75-2.49,1.13-3.63,1.13-1.2,0-2.25-.42-3.13-1.28-.87-.84-1.32-1.92-1.32-3.22,0-2.03,1.03-3.73,3.05-5.08ZM481.35,259.39c-1.61.53-2.94,1.12-4,1.76-2.01,1.24-3.01,2.66-3.01,4.24,0,1.28.42,2.21,1.25,2.82.54.39,1.15.59,1.83.59.93,0,1.81-.26,2.66-.78.86-.51,1.27-1.17,1.27-1.97v-6.66Z"/>
    <path class="st2" d="M501.11,251.83c.57.29,1.11.7,1.64,1.22v-6.68c0-.85-.1-1.44-.28-1.76-.21-.32-.65-.48-1.37-.48-.16,0-.31,0-.43.02-.12.01-.39.04-.84.08v-.7l1.72-.44c.64-.16,1.26-.35,1.89-.52.63-.18,1.18-.36,1.66-.53.24-.06.61-.21,1.13-.39l.12.04-.04,2.21c0,.8-.02,1.62-.04,2.47-.01.85-.02,1.69-.02,2.52l-.05,17.17c0,.92.12,1.54.35,1.91.21.36.81.54,1.79.54.15,0,.31,0,.45-.01.15,0,.32-.03.47-.06v.7c-.08.04-1.1.38-3.05,1.05l-3.28,1.23-.15-.19v-2.58c-.8.86-1.47,1.46-2.05,1.84-1.02.62-2.2.93-3.54.93-2.38,0-4.31-.91-5.78-2.75-1.48-1.85-2.21-3.98-2.21-6.4,0-3.04.87-5.65,2.65-7.84,1.77-2.18,3.94-3.26,6.5-3.26,1.02,0,1.96.22,2.8.66ZM501.73,268.18c.68-.65,1.02-1.26,1.02-1.82v-9.02c0-1.81-.5-3.1-1.47-3.85-.98-.75-1.91-1.13-2.84-1.13-1.77,0-3.14.78-4.12,2.34-.97,1.57-1.46,3.5-1.46,5.78s.52,4.26,1.56,6.03c1.05,1.76,2.6,2.65,4.67,2.65,1.1,0,1.98-.32,2.65-.97Z"/>
    <path class="st2" d="M510.47,270.44c1.5-.15,2.46-.4,2.83-.77.4-.37.6-1.38.6-3.03v-10.02c0-.91-.06-1.53-.19-1.89-.21-.57-.66-.86-1.33-.86-.15,0-.3.01-.44.04-.16.04-.58.14-1.28.33v-.66l.9-.28c2.47-.8,4.16-1.4,5.13-1.81.4-.17.64-.24.76-.24.02.09.04.2.04.31v15.09c0,1.6.2,2.61.58,3.01.38.41,1.27.66,2.62.78v.58h-10.22v-.58ZM513.82,242.34c.42-.44.94-.65,1.55-.65s1.12.21,1.53.64c.43.42.65.95.65,1.56s-.22,1.11-.65,1.53c-.42.43-.93.65-1.53.65s-1.13-.22-1.55-.65c-.43-.42-.63-.93-.63-1.53s.2-1.12.63-1.55Z"/>
    <path class="st2" d="M522.37,270.44c.99-.13,1.69-.38,2.09-.75.4-.37.6-1.21.6-2.49v-10.67c0-.9-.07-1.53-.25-1.89-.27-.52-.82-.79-1.64-.79-.13,0-.27.01-.39.02-.14.01-.29.04-.48.07v-.74c.57-.17,1.92-.61,4.07-1.3l1.97-.65c.09,0,.15.03.18.1.02.08.03.17.03.29v3.09c1.29-1.2,2.3-2.03,3.02-2.48,1.09-.68,2.22-1.01,3.4-1.01.94,0,1.81.26,2.59.81,1.52,1.06,2.26,2.96,2.26,5.7v9.81c0,1.01.21,1.74.62,2.19.4.45,1.06.68,2.02.7v.58h-8.97v-.58c1.02-.15,1.73-.42,2.13-.86.41-.42.62-1.35.62-2.78v-8.96c0-1.21-.23-2.21-.67-3.01-.44-.78-1.27-1.18-2.47-1.18-.81,0-1.65.28-2.5.84-.46.32-1.09.85-1.83,1.6v11.77c0,1.01.21,1.67.67,2.03.45.34,1.15.53,2.12.56v.58h-9.18v-.58Z"/>
    <path class="st2" d="M547.09,261.71c-.7-1.07-1.05-2.28-1.05-3.64,0-1.63.66-3.19,1.95-4.66,1.32-1.48,3.15-2.21,5.53-2.21,1.02,0,2.15.24,3.38.72,1.24.49,2.41.72,3.56.72.29,0,.74-.01,1.33-.03.6-.02,1.02-.02,1.29-.02h.26v1.7h-3.63c.25.59.45,1.1.59,1.54.24.81.35,1.58.35,2.3,0,1.61-.65,3.08-1.98,4.42-1.32,1.33-3.11,2-5.36,2-.35,0-.99-.06-1.9-.18-.4,0-.94.33-1.62,1.02-.67.69-1,1.25-1,1.68s.48.79,1.47,1c.65.13,1.36.2,2.14.2,3.62,0,6.06.2,7.36.62,2.12.66,3.18,2.07,3.18,4.24s-1.25,3.98-3.71,5.3c-2.48,1.32-4.98,1.97-7.5,1.97-2.29,0-4.12-.46-5.47-1.39-1.33-.94-2-1.91-2-2.94,0-.5.18-.99.53-1.47.36-.48,1.06-1.22,2.11-2.15l1.39-1.25.25-.25c-.64-.25-1.11-.5-1.44-.73-.56-.44-.82-.94-.82-1.49,0-.52.23-1.09.73-1.71.48-.63,1.5-1.64,3.09-3.04-1.27-.42-2.25-1.16-2.97-2.25ZM549.32,277.35c1.32.44,2.84.67,4.55.67,2.32,0,4.22-.41,5.68-1.21,1.46-.8,2.19-1.8,2.19-2.97,0-.95-.59-1.56-1.78-1.87-.73-.18-2.11-.29-4.14-.31-.52-.02-1.07-.04-1.64-.06-.58-.02-1.11-.05-1.59-.08-.31-.02-.8-.07-1.49-.16-.69-.1-1.2-.19-1.54-.25-.17,0-.57.44-1.23,1.33-.66.88-1,1.71-1,2.47,0,1.18.68,1.99,1.99,2.44ZM555.99,262.92c.85-.68,1.27-1.85,1.27-3.51,0-1.34-.33-2.84-1.02-4.51-.67-1.66-1.82-2.49-3.39-2.49-1.37,0-2.32.65-2.85,1.95-.26.69-.38,1.53-.38,2.54,0,1.72.41,3.24,1.24,4.6.83,1.36,1.89,2.04,3.22,2.04.77,0,1.42-.21,1.92-.62Z"/>
  </g>
</svg>