<?xml version="1.0" standalone="no"?>
<!DOCTYPE svg PUBLIC "-//W3C//DTD SVG 20010904//EN"
 "http://www.w3.org/TR/2001/REC-SVG-20010904/DTD/svg10.dtd">
<svg version="1.0" xmlns="http://www.w3.org/2000/svg"
 width="2400.000000pt" height="728.000000pt" viewBox="0 0 2400.000000 728.000000"
 preserveAspectRatio="xMidYMid meet">
<g transform="translate(0.000000,728.000000) scale(0.100000,-0.100000)"
fill="#000000" stroke="none">
<path d="M7467 6014 c-3 -4 -115 -12 -249 -20 -134 -7 -259 -18 -278 -24 -19
-5 -84 -15 -145 -20 -60 -6 -132 -17 -159 -25 -27 -8 -65 -15 -85 -15 -20 0
-61 -7 -91 -15 -30 -9 -86 -20 -125 -26 -38 -6 -81 -17 -97 -25 -15 -8 -38
-14 -52 -14 -14 0 -52 -9 -83 -19 -32 -11 -77 -23 -100 -26 -24 -4 -45 -11
-48 -15 -3 -5 -31 -14 -63 -20 -31 -7 -62 -16 -68 -21 -7 -5 -34 -16 -60 -23
-75 -22 -145 -46 -190 -67 -22 -11 -45 -19 -50 -19 -5 0 -27 -9 -49 -20 -22
-11 -47 -20 -56 -20 -9 0 -22 -6 -28 -14 -7 -8 -27 -17 -45 -20 -19 -4 -39
-13 -46 -21 -7 -8 -19 -15 -26 -15 -13 0 -97 -38 -134 -61 -8 -5 -26 -14 -40
-19 -14 -6 -32 -15 -40 -20 -8 -6 -26 -15 -40 -20 -14 -6 -32 -15 -40 -20 -8
-6 -28 -17 -45 -26 -16 -8 -48 -26 -70 -39 -22 -13 -53 -31 -70 -40 -16 -8
-48 -27 -70 -40 -22 -14 -51 -30 -65 -37 -14 -7 -29 -18 -33 -25 -4 -7 -13
-13 -19 -13 -12 0 -201 -124 -229 -150 -9 -8 -29 -24 -44 -35 -41 -28 -180
-140 -202 -162 -11 -10 -60 -55 -109 -101 -81 -74 -161 -161 -297 -322 -7 -8
-26 -35 -42 -60 -17 -25 -33 -47 -38 -48 -4 -2 -17 -20 -28 -40 -11 -21 -28
-50 -39 -67 -73 -112 -181 -347 -196 -425 -4 -19 -13 -46 -20 -60 -7 -14 -17
-59 -24 -100 -6 -41 -15 -97 -20 -125 -13 -75 -12 -178 4 -248 8 -34 19 -87
24 -117 35 -196 210 -463 393 -603 44 -33 191 -107 214 -107 9 0 26 -6 38 -14
12 -8 42 -17 67 -21 25 -4 68 -13 97 -21 110 -31 498 -8 628 38 17 5 53 16 80
24 66 18 153 49 190 68 17 9 38 16 47 16 9 0 20 4 23 10 3 5 36 24 73 42 224
110 477 328 599 514 7 11 24 36 38 57 14 21 25 42 25 46 0 5 8 19 19 32 10 13
22 35 26 49 4 14 13 32 20 40 7 8 15 29 19 45 4 17 13 44 21 60 71 154 98 552
46 676 -6 13 -15 43 -21 67 -19 74 -43 54 -56 -48 -19 -142 -36 -232 -55 -293
-11 -31 -19 -63 -19 -71 0 -8 -7 -27 -15 -43 -8 -15 -28 -57 -46 -93 -44 -90
-67 -132 -76 -139 -4 -3 -22 -26 -38 -51 -33 -50 -82 -106 -134 -154 -19 -17
-41 -38 -50 -46 -25 -24 -156 -110 -168 -110 -6 0 -16 -6 -22 -14 -7 -8 -27
-18 -44 -22 -17 -3 -41 -12 -52 -19 -32 -20 -235 -58 -280 -52 -81 11 -190 39
-206 53 -8 8 -19 14 -24 14 -14 0 -109 67 -136 97 -40 43 -92 122 -121 183
-61 131 -68 148 -68 169 0 12 -8 36 -17 54 -26 49 -32 378 -8 468 9 35 21 83
26 107 5 24 15 53 24 65 8 12 15 30 15 40 0 11 8 36 19 56 10 20 24 47 30 61
6 14 22 43 36 65 13 22 27 47 31 55 12 25 58 93 74 111 8 9 29 33 45 54 114
145 305 322 455 421 19 13 54 37 78 54 23 16 45 30 47 30 3 0 28 16 56 35 27
20 60 40 72 46 12 6 40 21 62 34 48 28 379 194 450 224 28 12 63 29 78 36 16
8 34 15 40 15 7 0 35 12 62 25 28 14 57 25 65 25 9 0 24 6 35 14 11 7 36 17
55 21 19 4 44 14 55 21 11 8 26 14 35 14 9 0 33 9 55 20 22 11 48 20 60 20 11
0 37 9 58 20 20 11 47 20 59 20 13 1 41 9 63 20 22 11 51 20 65 20 14 0 43 9
65 20 22 11 51 20 65 20 14 0 45 9 69 20 24 11 53 20 65 20 12 0 47 9 79 20
31 11 70 20 87 20 17 0 44 7 60 15 15 8 55 18 87 21 32 4 72 12 88 19 17 7 63
15 102 18 79 5 103 17 103 52 0 28 -44 48 -63 29z m-3560 -2361 c-5 -43 9 -73
34 -73 5 0 9 -33 9 -73 0 -61 3 -74 20 -85 17 -10 20 -23 20 -80 0 -56 3 -69
20 -80 12 -7 20 -23 20 -40 0 -16 8 -32 20 -40 12 -7 20 -23 20 -40 0 -17 8
-32 21 -40 14 -9 19 -20 16 -33 -4 -14 8 -32 40 -64 30 -29 44 -49 40 -60 -4
-9 3 -24 18 -37 48 -42 27 -88 -40 -88 -32 0 -47 6 -63 25 -19 22 -28 25 -58
19 -33 -6 -38 -3 -129 88 -67 67 -95 102 -95 119 0 13 -9 30 -20 37 -19 12
-20 23 -20 237 0 214 1 225 20 237 11 7 20 24 20 37 0 29 58 91 78 83 10 -4
13 -17 9 -49z"/>
<path d="M8129 5683 c-63 -71 -59 83 -59 -1937 0 -1738 1 -1835 17 -1872 24
-51 65 -94 91 -94 32 0 82 52 93 96 12 51 12 3686 0 3738 -20 85 -94 121 -142
69z"/>
<path d="M10578 5368 c-11 -18 -12 -183 -8 -819 l5 -796 28 -41 c59 -84 92
-97 244 -96 179 2 200 16 185 119 -8 59 -34 68 -123 42 -56 -17 -101 -10 -141
22 l-23 19 4 771 c2 602 1 775 -9 786 -22 26 -146 21 -162 -7z"/>
<path d="M12688 5383 c-10 -2 -18 -10 -18 -16 -1 -7 -1 -401 -1 -877 l0 -865
93 0 93 0 -1 80 c-5 651 -4 692 7 725 57 162 257 310 419 310 106 0 185 -57
241 -175 l24 -50 1 -445 1 -445 69 -6 c38 -3 80 -2 94 3 l25 8 -2 358 c-3 378
-16 584 -40 642 -68 158 -121 214 -237 251 -85 28 -196 30 -244 5 -17 -9 -42
-16 -55 -16 -13 0 -35 -8 -48 -19 -13 -10 -35 -22 -49 -26 -14 -4 -67 -51
-118 -103 -53 -54 -97 -91 -101 -86 -5 5 -5 79 -1 164 20 380 21 557 4 574
-15 16 -111 21 -156 9z"/>
<path d="M9564 5333 l-50 -4 -27 -57 c-15 -31 -27 -64 -27 -72 0 -9 -6 -24
-14 -35 -7 -11 -17 -31 -20 -45 -8 -26 -36 -89 -67 -152 -11 -20 -19 -44 -19
-53 0 -9 -8 -33 -19 -53 -25 -50 -54 -116 -81 -182 -12 -30 -30 -72 -41 -92
-10 -20 -19 -45 -19 -55 0 -10 -9 -31 -20 -48 -11 -16 -20 -38 -20 -48 0 -10
-9 -35 -19 -55 -11 -20 -29 -62 -41 -92 -12 -30 -31 -73 -41 -96 -11 -23 -19
-48 -19 -56 0 -9 -6 -21 -14 -27 -8 -7 -18 -27 -22 -44 -3 -18 -14 -48 -24
-67 -10 -19 -24 -51 -33 -70 -27 -64 -69 -155 -84 -185 -60 -117 -50 -138 65
-129 83 7 106 21 118 74 3 14 14 43 25 66 10 23 19 47 19 55 0 8 10 34 21 59
42 87 60 134 92 230 6 19 16 38 22 42 5 4 177 7 382 7 400 0 385 2 399 -54 4
-17 13 -39 20 -50 8 -11 14 -26 14 -35 0 -8 9 -32 20 -53 11 -20 20 -43 20
-50 0 -7 9 -29 20 -50 11 -20 20 -43 20 -50 0 -7 9 -29 20 -50 11 -20 20 -45
20 -54 0 -54 35 -80 112 -85 115 -8 127 7 82 102 -14 30 -35 75 -46 100 -11
25 -29 62 -39 82 -11 20 -19 42 -19 49 0 12 -27 74 -60 139 -9 19 -21 49 -24
67 -4 17 -14 37 -22 44 -8 6 -14 19 -14 28 0 9 -9 34 -20 56 -11 22 -20 44
-20 50 0 6 -9 27 -20 48 -11 20 -20 45 -20 54 0 10 -9 32 -20 48 -11 17 -20
36 -20 44 0 8 -8 32 -19 55 -10 23 -29 66 -41 96 -12 30 -30 72 -41 92 -10 20
-19 42 -19 49 0 11 -18 55 -61 144 -10 22 -19 44 -19 49 0 5 -8 27 -19 50 -10
23 -28 64 -39 91 -64 160 -80 188 -106 183 -6 -1 -34 -3 -62 -5z m58 -297 c5
-22 12 -44 17 -50 9 -11 41 -97 63 -166 5 -19 17 -44 24 -55 8 -11 14 -26 14
-35 0 -8 9 -32 20 -53 11 -20 20 -42 20 -48 0 -7 9 -33 21 -58 12 -25 29 -64
40 -86 58 -128 70 -158 65 -173 -5 -16 -32 -17 -323 -16 -367 2 -348 -5 -297
102 14 31 35 76 45 100 11 23 28 61 38 85 10 23 29 67 41 97 12 30 31 74 41
98 10 23 19 49 19 57 0 8 9 32 20 52 11 21 20 45 20 53 0 9 6 24 14 35 7 11
17 36 21 55 10 48 13 52 43 48 22 -2 28 -10 34 -42z"/>
<path d="M15763 5325 c-29 -20 -34 -123 -7 -150 16 -16 321 -16 520 0 43 4 64
1 71 -7 7 -9 8 -272 4 -768 -4 -449 -3 -760 3 -768 6 -9 35 -12 100 -10 l91 3
-1 80 c-7 870 -3 1450 8 1461 10 9 76 10 291 2 322 -11 307 -15 307 76 0 101
23 95 -345 85 -299 -8 -672 -5 -915 6 -86 5 -109 3 -127 -10z"/>
<path d="M20585 5300 c-3 -5 -6 -99 -5 -207 1 -109 1 -204 1 -211 -1 -10 -19
-13 -75 -11 -90 4 -104 -5 -102 -64 2 -63 7 -67 97 -67 56 0 79 -4 79 -12 1
-7 0 -224 0 -481 -1 -546 -6 -517 120 -607 45 -32 287 -37 333 -7 13 8 40 20
58 25 32 8 34 11 32 48 -6 118 -22 139 -81 106 -101 -55 -221 -48 -266 16
l-25 37 -1 425 c0 234 0 431 0 439 0 12 23 13 135 8 159 -6 164 -4 161 74 -3
68 -8 70 -163 62 l-133 -6 -2 219 -3 219 -77 3 c-45 2 -79 -1 -83 -8z"/>
<path d="M6040 5180 c-47 -4 -96 -12 -110 -17 -14 -6 -52 -14 -85 -18 -33 -4
-71 -13 -85 -20 -14 -7 -44 -17 -65 -21 -22 -4 -56 -15 -75 -25 -19 -11 -42
-19 -50 -19 -13 0 -77 -27 -120 -52 -8 -4 -26 -13 -40 -18 -109 -45 -327 -197
-443 -309 -141 -135 -346 -443 -347 -521 0 -8 -7 -24 -15 -34 -8 -11 -15 -28
-15 -38 0 -10 -9 -44 -20 -76 -43 -120 -46 -459 -6 -567 8 -22 15 -50 16 -61
0 -26 27 -51 40 -38 5 5 13 43 19 84 24 179 34 237 46 266 8 18 17 49 21 70 4
22 15 55 25 74 11 19 19 42 19 51 0 9 6 22 14 28 8 7 17 24 21 38 3 15 15 38
26 51 10 14 19 31 19 38 0 8 4 14 9 14 4 0 24 25 44 56 30 47 132 160 187 207
31 26 157 107 167 107 6 0 16 6 22 14 7 8 25 18 41 21 15 3 45 15 66 26 21 10
50 19 64 19 14 0 47 7 74 15 178 54 426 -42 549 -212 57 -80 137 -244 137
-282 0 -12 8 -36 17 -54 21 -39 32 -386 14 -459 -22 -92 -33 -134 -43 -163 -6
-16 -17 -50 -26 -75 -8 -25 -21 -52 -29 -61 -7 -8 -13 -22 -13 -31 0 -8 -8
-26 -18 -39 -10 -13 -23 -35 -30 -49 -6 -14 -17 -34 -24 -45 -47 -75 -64 -101
-75 -108 -7 -4 -13 -13 -13 -19 0 -28 -173 -212 -290 -306 -58 -47 -109 -90
-115 -96 -5 -7 -35 -28 -65 -49 -30 -20 -73 -49 -96 -64 -54 -37 -72 -49 -114
-73 -19 -11 -48 -29 -65 -40 -30 -20 -61 -37 -120 -66 -16 -8 -37 -19 -45 -24
-8 -5 -62 -33 -120 -61 -58 -28 -112 -55 -120 -60 -8 -5 -22 -12 -30 -15 -49
-21 -129 -57 -152 -69 -14 -8 -32 -15 -40 -15 -7 0 -30 -9 -51 -20 -20 -11
-43 -20 -50 -20 -7 0 -30 -9 -52 -20 -21 -11 -54 -23 -72 -26 -18 -3 -36 -10
-39 -15 -2 -5 -24 -13 -47 -19 -23 -6 -55 -17 -72 -24 -33 -15 -106 -40 -175
-60 -25 -8 -58 -19 -75 -24 -67 -24 -133 -44 -177 -53 -26 -5 -60 -16 -75 -24
-15 -8 -39 -15 -53 -15 -14 0 -51 -9 -83 -20 -31 -11 -70 -20 -87 -20 -17 0
-44 -7 -60 -15 -15 -8 -55 -18 -87 -21 -32 -4 -70 -13 -85 -20 -15 -8 -49 -14
-75 -14 -96 0 -158 -37 -110 -67 22 -14 493 8 558 27 19 5 87 14 150 19 63 5
128 15 144 21 17 6 68 16 115 21 47 5 102 16 123 24 20 8 50 15 65 15 15 0 52
7 82 15 30 9 82 22 115 30 133 31 191 47 215 60 14 7 43 16 65 20 21 3 52 13
67 21 15 8 35 14 45 14 10 0 36 9 56 19 21 11 56 22 78 26 21 4 41 11 44 15 3
5 22 14 43 20 35 11 92 35 157 65 17 8 42 17 57 21 15 3 32 12 39 20 6 8 18
14 25 14 8 0 36 11 62 24 26 13 72 36 102 51 30 14 62 30 70 36 8 5 26 14 40
19 14 6 43 21 65 35 22 13 51 29 65 34 14 6 32 15 40 21 29 19 142 85 168 99
15 8 31 20 35 28 4 7 13 13 19 13 11 0 194 119 228 148 8 7 65 52 125 99 146
115 296 255 392 365 43 49 91 104 107 121 15 18 39 48 52 67 13 19 42 60 65
90 22 30 47 69 55 85 9 17 26 48 39 70 38 63 125 241 125 256 0 8 7 22 15 32
7 11 17 38 20 60 4 23 13 53 20 67 8 14 18 57 24 95 6 39 16 94 21 123 21 105
-7 391 -45 462 -7 14 -16 42 -20 63 -4 20 -11 40 -16 43 -5 3 -16 21 -24 40
-54 129 -234 335 -360 411 -43 26 -144 73 -157 73 -8 0 -22 6 -33 14 -11 7
-40 17 -65 21 -25 4 -63 13 -85 20 -51 17 -292 26 -405 15z m448 -554 c31 5
40 2 59 -20 14 -15 29 -23 38 -20 23 9 143 -112 155 -156 13 -50 12 -581 -2
-597 -23 -28 -82 -6 -77 29 3 27 -2 37 -21 43 -18 6 -20 15 -20 81 0 41 -4 74
-10 74 -14 0 -33 79 -26 112 4 21 0 33 -21 52 -16 15 -24 30 -20 40 4 11 -3
24 -18 38 -15 13 -25 32 -25 47 0 16 -8 31 -21 39 -14 9 -19 20 -16 33 4 14
-8 32 -40 64 -29 28 -44 49 -40 59 6 16 -12 41 -35 49 -9 3 -1 17 22 40 l35
36 23 -24 c19 -21 29 -24 60 -19z"/>
<path d="M11750 4900 c-81 -20 -127 -36 -150 -50 -14 -9 -37 -21 -52 -27 -15
-7 -59 -43 -98 -80 -39 -37 -76 -68 -83 -68 -12 0 -13 86 -1 146 8 40 -18 59
-77 59 -79 0 -92 -12 -85 -73 9 -74 10 -1507 1 -1598 -9 -99 0 -109 94 -109
100 0 94 -26 86 383 -9 407 -9 406 64 305 38 -53 124 -118 206 -156 43 -21
175 -45 212 -39 89 13 189 39 204 53 8 8 20 14 26 14 20 0 121 86 165 140 55
68 117 195 129 263 32 186 33 200 16 269 -9 37 -17 77 -17 89 0 23 -33 101
-78 186 -98 184 -390 336 -562 293z m165 -180 c22 -11 43 -19 48 -20 54 -2
184 -140 236 -250 43 -92 43 -328 0 -409 -10 -20 -19 -39 -19 -44 0 -4 -10
-22 -22 -40 -196 -282 -531 -269 -739 29 l-34 49 0 225 c0 221 0 226 25 265
51 83 116 133 260 199 52 23 193 21 245 -4z"/>
<path d="M14440 4901 c-25 -4 -58 -13 -73 -19 -16 -7 -40 -12 -54 -12 -14 0
-37 -6 -51 -14 -15 -8 -56 -29 -92 -46 -143 -70 -142 -69 -120 -127 28 -75 66
-91 117 -50 26 21 76 47 177 92 72 32 257 25 331 -12 115 -59 173 -163 178
-321 2 -67 2 -67 -26 -70 -16 -2 -34 1 -41 7 -7 6 -45 15 -84 21 -40 5 -91 14
-115 20 -60 14 -143 12 -212 -5 -33 -8 -73 -14 -90 -15 -16 0 -43 -9 -60 -20
-16 -11 -35 -20 -42 -20 -48 0 -203 -158 -203 -206 0 -9 -5 -34 -12 -56 -34
-115 75 -353 176 -384 12 -4 28 -13 37 -20 20 -18 161 -54 209 -54 51 0 219
38 244 55 11 8 26 15 33 15 17 0 99 57 140 97 41 41 63 38 63 -10 0 -31 41
-104 68 -121 26 -16 119 -18 134 -3 26 26 12 115 -23 152 l-29 31 0 344 c0
442 -15 499 -165 642 -30 28 -122 78 -145 78 -11 0 -36 6 -55 14 -43 18 -155
27 -215 17z m265 -674 c62 -9 101 -20 122 -35 l32 -23 -5 -87 c-10 -147 -65
-229 -194 -287 -19 -9 -51 -24 -70 -32 -66 -31 -264 -25 -323 11 -145 87 -183
260 -79 369 20 20 40 37 46 37 5 0 17 7 27 16 52 47 243 61 444 31z"/>
<path d="M19735 4901 c-84 -17 -171 -44 -186 -57 -8 -8 -21 -14 -28 -14 -25 0
-124 -106 -149 -160 -50 -108 -31 -261 42 -333 31 -31 100 -77 114 -77 7 0 29
-9 49 -20 21 -11 47 -20 58 -20 11 -1 38 -9 60 -20 22 -11 53 -19 68 -20 15 0
40 -6 55 -14 15 -8 50 -17 77 -21 102 -16 194 -80 204 -145 18 -107 -22 -172
-134 -224 -76 -35 -283 -38 -350 -6 -22 11 -47 19 -56 20 -9 0 -28 9 -42 20
-14 11 -28 20 -32 20 -5 0 -32 21 -62 46 -69 60 -93 56 -128 -19 l-23 -52 51
-48 c259 -241 780 -204 917 64 32 64 43 203 20 264 -24 63 -190 185 -252 185
-10 0 -35 9 -55 20 -21 11 -48 20 -60 20 -12 0 -45 9 -73 20 -28 11 -58 20
-68 20 -18 0 -105 32 -161 58 -83 40 -109 160 -52 239 58 80 106 98 266 97
158 0 211 -16 306 -96 26 -21 51 -38 56 -38 29 0 90 98 79 126 -7 17 -102 85
-156 110 -92 44 -271 71 -355 55z"/>
<path d="M17629 4876 c-37 -7 -74 -20 -84 -29 -9 -9 -21 -17 -27 -17 -28 0
-154 -123 -174 -168 -9 -23 -19 -32 -31 -30 -16 3 -18 15 -14 115 3 104 2 112
-17 122 -29 15 -127 14 -139 -1 -5 -8 -8 -280 -8 -628 l0 -615 56 -5 c30 -3
69 -3 85 0 l29 5 1 405 2 405 45 67 c25 37 58 78 73 90 91 72 164 106 247 113
77 7 85 16 91 92 8 90 -12 101 -135 79z"/>
<path d="M17966 4871 c-25 -10 -26 -798 0 -893 7 -29 14 -63 14 -76 0 -65 99
-210 173 -256 44 -27 184 -59 231 -53 82 11 191 39 207 53 8 8 22 14 31 14 8
0 25 9 38 20 13 11 27 20 31 20 13 0 127 119 134 140 4 11 15 20 26 20 17 0
19 -7 19 -62 0 -116 51 -179 146 -182 66 -1 75 9 67 78 -4 36 -13 59 -32 79
l-26 28 4 534 3 534 -24 6 c-13 3 -53 5 -88 3 -82 -4 -76 30 -69 -422 6 -395
7 -381 -55 -481 -42 -67 -188 -185 -228 -185 -7 0 -26 -7 -43 -16 -81 -44
-230 -21 -296 45 -90 92 -102 169 -98 669 3 319 1 374 -11 382 -18 11 -127 12
-154 1z"/>
<path d="M14900 2595 c-8 -9 -10 -28 -6 -50 12 -60 96 -41 96 21 0 38 -65 59
-90 29z"/>
<path d="M8810 2585 c-13 -16 3 -85 21 -85 5 0 15 -15 22 -32 8 -18 21 -39 30
-47 10 -7 17 -19 17 -27 0 -7 6 -17 13 -21 31 -18 51 -79 56 -167 10 -153 71
-148 71 5 0 83 6 99 77 201 18 26 33 52 33 56 0 5 11 21 26 37 30 33 31 88 1
93 -18 4 -76 -44 -77 -62 0 -17 -92 -166 -99 -162 -4 3 -20 29 -35 58 -84 163
-119 197 -156 153z"/>
<path d="M10252 2588 c-36 -36 16 -74 87 -64 74 10 75 7 68 -203 -6 -185 0
-221 38 -221 26 0 30 25 35 225 l5 200 69 5 c76 5 102 24 77 54 -17 21 -359
24 -379 4z"/>
<path d="M12335 2590 c-4 -6 -5 -40 -3 -75 3 -70 -5 -89 -26 -60 -24 34 -123
33 -166 -1 -46 -36 -80 -107 -80 -164 0 -52 48 -136 88 -156 13 -6 29 -17 35
-23 18 -18 82 -13 111 10 26 20 27 20 72 3 60 -23 89 17 49 70 -11 15 -13 55
-10 199 2 99 1 186 -2 194 -6 15 -59 18 -68 3z m-42 -202 c18 -12 33 -22 35
-24 2 -1 5 -28 7 -60 6 -76 -22 -114 -85 -114 -65 0 -88 14 -100 61 -32 116
55 198 143 137z"/>
<path d="M12661 2591 c-20 -13 -25 -436 -5 -468 34 -54 57 -25 64 80 l5 79 85
2 c98 2 116 10 153 63 46 66 39 135 -18 198 l-45 50 -112 3 c-62 1 -119 -2
-127 -7z m219 -91 c30 -28 32 -34 26 -78 -8 -64 -24 -73 -116 -70 l-75 3 2 65
c1 36 2 75 2 88 1 38 117 33 161 -8z"/>
<path d="M15686 2563 c-13 -21 -27 -52 -31 -70 -3 -17 -12 -37 -20 -43 -7 -6
-16 -29 -20 -50 -4 -21 -13 -44 -21 -51 -8 -6 -14 -22 -14 -34 0 -12 -8 -33
-19 -46 -10 -13 -22 -39 -25 -56 -4 -18 -12 -35 -17 -38 -15 -10 -10 -65 7
-72 27 -10 64 14 70 47 4 16 13 35 20 41 8 6 14 19 14 29 0 30 22 38 103 37
l78 -2 19 -35 c10 -19 21 -47 24 -62 6 -29 58 -64 76 -53 12 8 13 68 1 81 -5
5 -14 26 -21 47 -6 20 -16 37 -21 37 -5 0 -12 18 -15 40 -4 22 -13 45 -20 51
-7 6 -16 27 -20 48 -4 20 -12 43 -19 51 -8 8 -16 32 -20 52 -8 41 -45 88 -69
88 -9 0 -27 -17 -40 -37z m68 -137 c27 -56 34 -105 16 -107 -102 -13 -118 2
-82 71 11 19 22 47 26 63 9 37 11 35 40 -27z"/>
<path d="M15982 2583 c-14 -28 -2 -449 14 -470 12 -17 14 -17 41 3 l28 21 3
218 c2 152 -1 222 -9 231 -16 20 -66 18 -77 -3z"/>
<path d="M11532 2578 c-7 -7 -12 -31 -12 -55 0 -32 -5 -45 -20 -53 -27 -14
-25 -34 5 -54 25 -17 25 -19 24 -139 l-1 -122 33 -27 c41 -34 69 -35 98 -4 33
35 24 60 -24 66 l-40 5 -3 90 c-4 120 0 133 41 137 41 4 47 41 7 46 -37 6 -51
21 -44 48 15 58 -27 99 -64 62z"/>
<path d="M13606 2574 c-3 -9 -6 -33 -6 -54 0 -45 -14 -53 -83 -51 -35 2 -49
-2 -53 -13 -8 -21 -30 -21 -38 0 -3 9 -15 14 -28 12 -23 -3 -23 -6 -26 -161
-3 -158 4 -197 33 -197 26 0 35 37 35 139 l0 100 33 24 c114 86 130 74 132
-98 l1 -128 30 -23 c42 -35 83 -31 117 8 l27 33 23 -27 c50 -60 78 -24 70 89
-8 102 1 134 43 161 87 55 106 30 105 -139 -1 -113 8 -139 48 -139 35 0 41 21
41 139 0 188 -41 246 -158 227 -20 -3 -42 -12 -48 -21 -14 -19 -30 -19 -38 0
-7 18 -55 20 -61 3 -2 -7 -6 -71 -9 -142 -5 -128 -14 -162 -38 -138 -7 7 -26
12 -44 12 -40 0 -44 10 -44 118 0 100 4 109 45 114 22 2 30 8 30 23 0 15 -8
21 -30 23 -34 4 -47 19 -39 45 12 39 -6 77 -36 77 -16 0 -30 -7 -34 -16z"/>
<path d="M9274 2471 c-97 -42 -145 -227 -75 -292 10 -10 21 -22 22 -26 2 -5
21 -19 42 -31 53 -31 106 -29 156 6 117 80 126 217 21 322 -27 27 -124 39
-166 21z m122 -83 c58 -66 64 -90 32 -145 -29 -49 -34 -53 -90 -53 -55 0 -92
31 -102 85 -18 94 102 178 160 113z"/>
<path d="M9946 2464 c-21 -20 -23 -294 -3 -333 34 -67 62 -18 59 102 -3 90 17
147 51 147 29 0 78 59 67 80 -14 27 -64 26 -91 -1 l-21 -21 -19 21 c-24 25
-23 25 -43 5z"/>
<path d="M10730 2473 c-8 -4 -21 -13 -27 -22 -12 -15 -14 -14 -27 2 -15 20
-52 23 -59 5 -10 -27 -8 -318 3 -338 32 -60 60 -7 60 115 0 96 15 145 44 145
28 1 81 59 70 77 -12 19 -39 26 -64 16z"/>
<path d="M11253 2468 c-41 -20 -66 -91 -46 -133 10 -20 27 -38 40 -41 12 -3
27 -12 34 -20 6 -8 26 -14 43 -14 38 0 51 -8 60 -37 14 -45 -43 -51 -171 -17
-42 11 -32 -53 11 -71 19 -8 37 -19 41 -25 23 -38 155 5 189 62 34 56 -6 129
-79 142 -43 8 -105 43 -105 59 1 35 74 57 107 32 21 -17 73 -20 73 -5 0 20
-29 68 -45 74 -26 10 -128 6 -152 -6z"/>
<path d="M11806 2473 c-37 -10 -106 -95 -108 -133 -6 -115 13 -159 95 -214 43
-29 116 -36 136 -12 7 8 22 17 34 20 24 6 61 62 51 77 -9 14 -60 10 -74 -6
-31 -38 -138 -25 -158 19 -15 34 -10 36 112 36 135 0 141 4 140 69 -4 108
-109 174 -228 144z m129 -84 c24 -21 35 -39 33 -53 -3 -21 -18 -22 -180 -17
-24 1 -23 23 3 55 42 54 94 59 144 15z"/>
<path d="M13084 2471 c-12 -5 -31 -21 -42 -36 -36 -46 -3 -74 47 -39 31 22
102 20 118 -3 24 -32 12 -48 -34 -45 -108 6 -199 -83 -166 -165 26 -66 137
-111 172 -69 20 24 61 29 82 10 23 -21 49 -12 50 18 5 188 -11 268 -63 315
-22 20 -130 28 -164 14z m127 -207 c32 -28 10 -68 -42 -77 -95 -18 -139 41
-61 83 40 21 75 19 103 -6z"/>
<path d="M14258 2474 c-22 -7 -68 -51 -91 -87 -51 -79 -19 -197 69 -256 51
-35 121 -42 148 -16 8 8 19 15 25 15 16 0 61 53 61 72 0 30 -19 30 -76 2 -79
-38 -163 -18 -164 39 0 15 12 17 119 17 95 0 123 3 135 16 17 17 21 59 7 69
-5 3 -12 18 -16 34 -12 56 -67 95 -138 97 -34 2 -70 0 -79 -2z m124 -81 c65
-45 51 -67 -47 -73 -44 -3 -86 -4 -92 -2 -21 7 -15 47 11 69 46 41 77 42 128
6z"/>
<path d="M14550 2470 c-15 -9 -25 -268 -14 -332 7 -36 34 -45 57 -17 15 18 17
36 14 108 -5 103 7 131 70 162 47 23 63 53 40 76 -19 20 -82 10 -97 -15 -8
-12 -13 -14 -16 -4 -9 19 -38 32 -54 22z"/>
<path d="M15150 2460 c-24 -24 -36 -25 -44 -5 -6 15 -51 21 -60 7 -2 -4 -6
-78 -7 -165 -3 -151 -2 -158 19 -179 40 -40 57 -7 57 110 1 132 0 128 42 157
86 58 103 37 103 -128 0 -124 8 -147 51 -147 42 0 48 24 42 164 -5 120 -22
170 -66 198 -26 17 -116 9 -137 -12z"/>
<path d="M9554 2456 c-9 -22 2 -217 14 -261 20 -73 121 -124 164 -82 34 32 72
40 87 18 18 -27 40 -27 49 2 4 12 5 92 2 177 l-5 155 -40 0 -40 0 -1 -90 c-1
-136 -2 -143 -24 -165 -28 -28 -105 -28 -120 -1 -5 11 -10 74 -10 140 l0 121
-35 0 c-21 0 -38 -6 -41 -14z"/>
<path d="M10827 2464 c-15 -15 -8 -261 8 -274 8 -7 15 -18 15 -25 0 -49 116
-81 163 -45 31 25 50 25 88 3 42 -25 44 -17 43 164 0 179 -2 183 -50 183 l-34
0 0 -115 c0 -143 -15 -168 -98 -163 l-47 3 -5 135 -5 135 -35 3 c-20 2 -39 0
-43 -4z"/>
<path d="M14900 2458 c-9 -347 -5 -374 51 -341 16 10 29 24 30 33 5 104 -4
306 -14 312 -19 12 -67 9 -67 -4z"/>
</g>
</svg>
