<?xml version="1.0" encoding="utf-8"?>
<!-- Generator: Adobe Illustrator 16.0.0, SVG Export Plug-In . SVG Version: 6.00 Build 0)  -->
<!DOCTYPE svg PUBLIC "-//W3C//DTD SVG 1.1//EN" "http://www.w3.org/Graphics/SVG/1.1/DTD/svg11.dtd">
<svg version="1.1" id="Layer_1" xmlns="http://www.w3.org/2000/svg" xmlns:xlink="http://www.w3.org/1999/xlink" x="0px" y="0px"
	 width="481.012px" height="83.049px" viewBox="0 0 481.012 83.049" enable-background="new 0 0 481.012 83.049"
	 xml:space="preserve">
<g>
	<g>
		<g>
			<g>
				<path fill="#FFFFFF" d="M65.678,66.329c-12.382,0-22.457-10.069-22.457-22.452s10.075-22.452,22.457-22.452
					c12.39,0,22.471,10.069,22.471,22.452S78.068,66.329,65.678,66.329z M65.678,23.808c-11.062,0-20.063,9.004-20.063,20.068
					c0,11.062,9.001,20.068,20.063,20.068c11.069,0,20.076-9.007,20.076-20.068C85.753,32.812,76.747,23.808,65.678,23.808z"/>
			</g>
		</g>
		<g>
			<g>
				<path fill="#FFFFFF" d="M58.822,37.836h2.99v-1.519c0-1.717,0.186-2.99,0.536-3.82c0.362-0.852,1.029-1.508,2.01-2.043
					c0.957-0.539,2.196-0.795,3.691-0.795c1.531,0,3.014,0.221,4.486,0.677l-0.724,3.738c-0.865-0.197-1.682-0.303-2.465-0.303
					c-0.783,0-1.332,0.186-1.67,0.56c-0.351,0.35-0.503,1.053-0.503,2.08v1.425h4.007v4.229h-4.007v16.039h-5.36V42.066h-2.99
					V37.836z"/>
			</g>
		</g>
	</g>
	<g>
		<g>
			<g>
				<path fill="#FFFFFF" d="M181.715,66.329c-12.388,0-22.47-10.069-22.47-22.452s10.083-22.452,22.47-22.452
					c12.377,0,22.446,10.069,22.446,22.452S194.092,66.329,181.715,66.329z M181.715,23.808c-11.069,0-20.074,9.004-20.074,20.068
					c0,11.062,9.005,20.068,20.074,20.068c11.057,0,20.052-9.007,20.052-20.068C201.767,32.812,192.771,23.808,181.715,23.808z"/>
			</g>
			<g>
				<g>
					<path fill-rule="evenodd" clip-rule="evenodd" fill="#FFFFFF" d="M167.604,54.587c2.278,0.165,4.474-0.174,6.565-1.121
						c0.911-0.386,1.775-0.898,2.617-1.555c-0.993-0.047-1.881-0.268-2.699-0.7c-1.413-0.724-2.406-1.846-3.014-3.317
						c-0.14-0.361-0.14-0.361,0.269-0.326c0.958,0.094,1.694,0.07,2.289-0.165c-0.549-0.174-1.051-0.304-1.496-0.56
						c-2.102-1.168-3.223-2.943-3.398-5.351c-0.035-0.292,0.058-0.315,0.315-0.187c0.736,0.398,1.542,0.584,2.477,0.643
						c-0.421-0.339-0.771-0.631-1.074-0.957c-1.753-1.848-2.174-4.851-0.994-7.114c0.152-0.306,0.222-0.306,0.443-0.035
						c2.909,3.353,6.554,5.396,10.923,6.097c0.468,0.07,0.958,0.094,1.425,0.164c0.304,0.059,0.34-0.094,0.292-0.339
						c-0.456-2.616,0.771-5.233,3.119-6.555c2.371-1.378,5.467-0.968,7.417,0.925c0.21,0.197,0.409,0.244,0.667,0.162
						c1.168-0.28,2.29-0.701,3.329-1.296c0.071-0.035,0.152-0.07,0.27-0.153c-0.468,1.473-1.355,2.57-2.664,3.459
						c1.226-0.117,2.313-0.479,3.364-0.889c0.047,0.164-0.07,0.259-0.14,0.353c-0.726,1.016-1.589,1.901-2.594,2.661
						c-0.209,0.142-0.256,0.282-0.233,0.516c0.047,4.614-1.414,8.715-4.369,12.265c-2.733,3.271-6.261,5.222-10.467,5.888
						c-4.462,0.69-8.645-0.08-12.5-2.43C167.697,54.623,167.661,54.611,167.604,54.587z"/>
				</g>
			</g>
		</g>
	</g>
	<g>
		<g>
			<g>
				<path fill="#FFFFFF" d="M298.434,66.662c-12.379,0-22.451-10.072-22.451-22.441c0-12.395,10.072-22.463,22.451-22.463
					c12.381,0,22.453,10.068,22.453,22.463C320.887,56.589,310.815,66.662,298.434,66.662z M298.434,24.14
					c-11.059,0-20.057,9.019-20.057,20.08c0,11.063,8.998,20.057,20.057,20.057c11.061,0,20.059-8.994,20.059-20.057
					C318.493,33.159,309.495,24.14,298.434,24.14z"/>
			</g>
		</g>
		<path fill="#FFFFFF" d="M306.819,35.739h-16.77c-2.137,0-3.877,1.741-3.877,3.879v9.217c0,2.138,1.74,3.844,3.877,3.844h16.77
			c2.137,0,3.879-1.706,3.879-3.844v-9.217C310.698,37.48,308.956,35.739,306.819,35.739z M296.168,48.699v-8.957l6.164,4.479
			L296.168,48.699z"/>
	</g>
	<g>
		<g>
			<g>
				<g>
					<path fill="#FFFFFF" d="M354.573,66.328c-12.369,0-22.428-10.081-22.428-22.476c0-12.371,10.059-22.428,22.428-22.428
						c12.395,0,22.477,10.057,22.477,22.428C377.049,56.247,366.967,66.328,354.573,66.328z M354.573,23.807
						c-11.049,0-20.043,8.996-20.043,20.045c0,11.074,8.994,20.094,20.043,20.094c11.076,0,20.096-9.02,20.096-20.094
						C374.668,32.803,365.649,23.807,354.573,23.807z"/>
				</g>
			</g>
			<g>
				<g>
					<path fill="#FFFFFF" d="M345.346,38.153V35.01h3.375v3.143H345.346z M345.346,52.695v-12.79h3.375v12.79H345.346z"/>
				</g>
				<g>
					<path fill="#FFFFFF" d="M363.85,52.695h-3.4v-6.528c0-1.367-0.068-2.268-0.221-2.664c-0.141-0.434-0.363-0.735-0.701-0.98
						c-0.316-0.223-0.736-0.305-1.18-0.305c-0.584,0-1.109,0.152-1.578,0.467c-0.455,0.305-0.781,0.737-0.947,1.298
						c-0.162,0.489-0.268,1.482-0.268,2.932v5.781h-3.387v-12.79h3.152v1.881c1.111-1.448,2.525-2.195,4.219-2.195
						c0.748,0,1.438,0.162,2.031,0.419c0.631,0.28,1.098,0.608,1.414,1.028c0.314,0.443,0.549,0.899,0.666,1.414
						c0.117,0.537,0.199,1.285,0.199,2.313V52.695z"/>
				</g>
			</g>
		</g>
	</g>
	<g>
		<g>
			<g>
				<path fill="#FFFFFF" d="M409.545,66.328c-12.383,0-22.451-10.082-22.451-22.452c0-12.369,10.068-22.451,22.451-22.451
					s22.451,10.082,22.451,22.451C431.997,56.246,421.928,66.328,409.545,66.328z M409.545,23.828
					c-11.063,0-20.07,8.986-20.07,20.048c0,11.063,9.008,20.048,20.07,20.048s20.07-8.985,20.07-20.048
					C429.616,32.814,420.608,23.828,409.545,23.828z"/>
			</g>
			<g>
				<g>
					<path fill-rule="evenodd" clip-rule="evenodd" fill="#FFFFFF" d="M421.86,40.91c-1.402-5.74-6.332-9.66-12.314-9.719
						c-0.77,0-1.602,0.069-2.43,0.256c-8.34,1.67-12.664,10.91-8.598,18.357c0.094,0.223,0.117,0.373,0.057,0.596
						c-0.547,1.947-1.072,3.92-1.623,5.869c-0.07,0.338-0.07,0.338,0.236,0.232c2.031-0.525,4.088-1.039,6.119-1.6
						c0.176-0.034,0.293-0.01,0.445,0.061c2.65,1.317,5.408,1.75,8.293,1.178C418.983,54.787,423.518,47.75,421.86,40.91z
						 M411.309,54.121c-0.572,0.105-1.133,0.141-1.449,0.141c-2.205,0-4.029-0.514-5.688-1.506c-0.211-0.128-0.396-0.186-0.654-0.08
						c-1.109,0.303-2.219,0.57-3.363,0.863c-0.236,0.068-0.248,0.021-0.188-0.188c0.279-1.063,0.584-2.137,0.889-3.174
						c0.07-0.316,0.045-0.525-0.131-0.795c-2.289-3.699-2.207-8.283,0.363-11.715c2.688-3.547,6.332-5.006,10.699-4.072
						c4.275,0.886,6.988,3.651,8.014,7.898C421.157,47.341,417.209,53.165,411.309,54.121z"/>
				</g>
				<g>
					<path fill-rule="evenodd" clip-rule="evenodd" fill="#FFFFFF" d="M412.84,49.827c-0.445,0.013-0.865-0.071-1.297-0.198
						c-2.908-0.842-5.082-2.638-6.836-5.041c-0.629-0.875-1.26-1.797-1.457-2.93c-0.246-1.342,0.127-2.484,1.133-3.395
						c0.313-0.293,1.295-0.421,1.682-0.235c0.139,0.071,0.232,0.188,0.279,0.339c0.385,0.865,0.736,1.74,1.088,2.579
						c0.082,0.186,0.033,0.351-0.037,0.491c-0.174,0.408-0.467,0.723-0.779,1.062c-0.213,0.211-0.234,0.419-0.061,0.722
						c1.016,1.705,2.455,2.918,4.275,3.678c0.281,0.117,0.492,0.081,0.678-0.152c0.303-0.396,0.643-0.781,0.936-1.166
						c0.186-0.257,0.432-0.326,0.699-0.199c0.631,0.281,1.217,0.572,1.848,0.877c0.141,0.046,0.279,0.126,0.406,0.186
						c0.609,0.326,0.609,0.326,0.551,1.004c-0.105,1.318-1.1,1.994-2.291,2.322C413.401,49.827,413.122,49.839,412.84,49.827z"/>
				</g>
			</g>
		</g>
	</g>
	<g>
		<g>
			<g>
				<path fill="#FFFFFF" d="M122.327,66.328c-12.37,0-22.428-10.081-22.428-22.476c0-12.371,10.058-22.428,22.428-22.428
					c12.395,0,22.477,10.057,22.477,22.428C144.804,56.247,134.722,66.328,122.327,66.328z M122.327,23.807
					c-11.049,0-20.044,8.996-20.044,20.045c0,11.074,8.995,20.094,20.044,20.094c11.075,0,20.095-9.02,20.095-20.094
					C142.422,32.803,133.402,23.807,122.327,23.807z"/>
			</g>
		</g>
		<g>
			<g>
				<path fill="#FFFFFF" d="M122.352,34.936c2.912,0,3.256,0.012,4.406,0.063c1.063,0.05,1.641,0.226,2.024,0.375
					c0.509,0.198,0.873,0.435,1.254,0.816c0.382,0.381,0.618,0.744,0.816,1.254c0.15,0.384,0.327,0.961,0.375,2.025
					c0.052,1.149,0.063,1.494,0.063,4.405s-0.011,3.257-0.063,4.406c-0.048,1.064-0.226,1.641-0.375,2.025
					c-0.198,0.51-0.434,0.871-0.816,1.254c-0.381,0.382-0.745,0.617-1.254,0.816c-0.384,0.147-0.961,0.326-2.024,0.375
					c-1.15,0.052-1.495,0.063-4.406,0.063c-2.912,0-3.257-0.012-4.406-0.063c-1.063-0.049-1.641-0.228-2.025-0.375
					c-0.509-0.199-0.873-0.435-1.254-0.816c-0.381-0.383-0.618-0.744-0.816-1.254c-0.149-0.385-0.326-0.961-0.375-2.025
					c-0.052-1.149-0.063-1.495-0.063-4.406s0.011-3.256,0.063-4.405c0.049-1.064,0.227-1.642,0.375-2.025
					c0.198-0.51,0.435-0.873,0.816-1.254c0.381-0.382,0.745-0.618,1.254-0.816c0.384-0.149,0.962-0.325,2.025-0.375
					C119.095,34.948,119.44,34.936,122.352,34.936 M122.352,32.971c-2.961,0-3.333,0.014-4.496,0.066
					c-1.161,0.053-1.954,0.236-2.647,0.506c-0.718,0.279-1.326,0.651-1.932,1.258c-0.606,0.606-0.979,1.215-1.257,1.932
					c-0.269,0.693-0.454,1.486-0.507,2.647c-0.053,1.162-0.066,1.534-0.066,4.495c0,2.962,0.013,3.334,0.066,4.496
					c0.053,1.16,0.238,1.952,0.507,2.647c0.279,0.718,0.651,1.325,1.257,1.931c0.606,0.605,1.214,0.979,1.932,1.258
					c0.693,0.27,1.486,0.455,2.647,0.506c1.162,0.055,1.534,0.066,4.496,0.066c2.961,0,3.333-0.012,4.495-0.066
					c1.161-0.051,1.954-0.236,2.647-0.506c0.717-0.278,1.325-0.652,1.932-1.258c0.606-0.605,0.979-1.213,1.257-1.931
					c0.27-0.695,0.454-1.487,0.507-2.647c0.053-1.162,0.065-1.534,0.065-4.496c0-2.961-0.013-3.333-0.065-4.495
					c-0.053-1.161-0.237-1.954-0.507-2.647c-0.279-0.717-0.651-1.325-1.257-1.932c-0.606-0.606-1.214-0.979-1.932-1.258
					c-0.693-0.27-1.486-0.453-2.647-0.506C125.685,32.985,125.313,32.971,122.352,32.971L122.352,32.971z"/>
				<path fill="#FFFFFF" d="M122.352,38.276c-3.092,0-5.6,2.508-5.6,5.6c0,3.093,2.507,5.6,5.6,5.6c3.093,0,5.599-2.507,5.599-5.6
					C127.951,40.784,125.445,38.276,122.352,38.276z M122.352,47.51c-2.007,0-3.634-1.627-3.634-3.635
					c0-2.006,1.627-3.635,3.634-3.635c2.008,0,3.635,1.629,3.635,3.635C125.987,45.883,124.36,47.51,122.352,47.51z"/>
				<circle fill="#FFFFFF" cx="128.173" cy="38.054" r="1.309"/>
			</g>
		</g>
	</g>
	<g>
		<g>
			<g>
				<path fill="#FFFFFF" d="M239.78,66.327c-12.37,0-22.428-10.08-22.428-22.475c0-12.371,10.058-22.428,22.428-22.428
					c12.396,0,22.479,10.057,22.479,22.428C262.258,56.247,252.176,66.327,239.78,66.327z M239.78,23.807
					c-11.049,0-20.044,8.996-20.044,20.045c0,11.074,8.995,20.094,20.044,20.094c11.077,0,20.098-9.02,20.098-20.094
					C259.877,32.803,250.857,23.807,239.78,23.807z"/>
			</g>
		</g>
		<path fill="#FFFFFF" d="M251.286,34.778c-0.082-0.241-0.18-0.307-0.335-0.365c-0.337-0.129-0.906,0.064-0.906,0.064
			s-20.199,7.259-21.353,8.064c-0.248,0.172-0.332,0.271-0.373,0.389c-0.2,0.573,0.422,0.826,0.422,0.826l5.206,1.695
			c0,0,0.193,0.029,0.262-0.016c1.185-0.747,11.917-7.523,12.536-7.751c0.098-0.028,0.17,0.004,0.15,0.073
			c-0.247,0.867-9.568,9.151-9.568,9.151s-0.036,0.044-0.059,0.096l-0.012-0.007l-0.486,5.162c0,0-0.203,1.582,1.379,0
			c1.116-1.114,2.195-2.049,2.736-2.504c1.79,1.236,3.717,2.604,4.549,3.318c0.417,0.359,0.767,0.418,1.055,0.407
			c0.789-0.029,1.01-0.897,1.01-0.897s3.68-14.811,3.803-16.795c0.012-0.195,0.029-0.32,0.029-0.454
			C251.334,35.051,251.317,34.866,251.286,34.778z"/>
	</g>
</g>
</svg>
