<?xml version="1.0" encoding="utf-8"?>
<!-- Generator: Adobe Illustrator 16.0.0, SVG Export Plug-In . SVG Version: 6.00 Build 0)  -->
<!DOCTYPE svg PUBLIC "-//W3C//DTD SVG 1.1//EN" "http://www.w3.org/Graphics/SVG/1.1/DTD/svg11.dtd">
<svg version="1.1" id="Layer_1" xmlns="http://www.w3.org/2000/svg" xmlns:xlink="http://www.w3.org/1999/xlink" x="0px" y="0px"
	 width="364px" height="80.667px" viewBox="0 0 364 80.667" enable-background="new 0 0 364 80.667" xml:space="preserve">
<g>
	<g>
		<g>
			<path fill="#5D5D5D" d="M322.206,73.501c-17.654,0-32.019-14.356-32.019-32.026c0-17.635,14.364-31.991,32.019-31.991
				c17.652,0,32.017,14.356,32.017,31.991C354.223,59.145,339.858,73.501,322.206,73.501z M322.206,12.88
				c-15.772,0-28.604,12.825-28.604,28.595c0,15.788,12.832,28.629,28.604,28.629c15.771,0,28.603-12.841,28.603-28.629
				C350.809,25.705,337.977,12.88,322.206,12.88z"/>
		</g>
		<g>
			<g>
				<path fill="#5D5D5D" d="M306.417,35.615c-1.133,0-2.032,0.881-2.032,2.013v9.744c0,1.115,0.899,2.016,2.032,2.016
					c1.1,0,2.015-0.9,2.015-2.016v-9.744C308.432,36.496,307.517,35.615,306.417,35.615z"/>
			</g>
			<g>
				<path fill="#5D5D5D" d="M337.992,35.615c-1.099,0-2.015,0.881-2.015,2.013v9.744c0,1.115,0.916,2.016,2.015,2.016
					c1.101,0,2.033-0.9,2.033-2.016v-9.744C340.025,36.496,339.093,35.615,337.992,35.615z"/>
			</g>
			<g>
				<path fill="#5D5D5D" d="M310.23,35.615c0,0.05,0,0.05,0,0.1v17.97c0,1.663,1.35,3.013,3.015,3.013h3.23v5.129
					c0,1.118,0.9,2.016,2.031,2.016c1.101,0,1.999-0.897,1.999-2.016v-5.129h3.431v5.129c0,1.118,0.916,2.016,2.016,2.016
					c1.116,0,2.015-0.897,2.015-2.016v-5.129h3.231c1.666,0,3.031-1.35,3.031-3.013v-17.97c0-0.05,0-0.05,0-0.1H310.23z"/>
			</g>
			<g>
				<path fill="#5D5D5D" d="M328.084,23.39l2.148-4.013l-0.433-0.234l-2.166,4.031c-1.631-0.834-3.464-1.334-5.412-1.334
					c-1.849,0-3.598,0.45-5.163,1.234l-2.081-3.932l-0.467,0.234l2.082,3.913c-3.714,1.949-6.245,5.912-6.278,10.409h23.815
					C334.112,29.252,331.664,25.405,328.084,23.39z M316.076,29.087c-0.633,0-1.116-0.5-1.116-1.116c0-0.6,0.483-1.1,1.116-1.1
					s1.133,0.5,1.133,1.1C317.209,28.587,316.709,29.087,316.076,29.087z M328.167,29.087c-0.633,0-1.133-0.5-1.133-1.116
					c0-0.6,0.5-1.1,1.133-1.1c0.615,0,1.133,0.5,1.133,1.1C329.3,28.587,328.782,29.087,328.167,29.087z"/>
			</g>
		</g>
	</g>
</g>
<g>
	<g>
		<g>
			<g>
				<path fill="#5D5D5D" d="M53.477,73.501c-17.654,0-32.018-14.372-32.018-32.042c0-17.635,14.364-31.976,32.018-31.976
					c17.652,0,32.017,14.341,32.017,31.976C85.494,59.129,71.129,73.501,53.477,73.501z M53.477,12.88
					c-15.772,0-28.604,12.825-28.604,28.579c0,15.788,12.832,28.645,28.604,28.645c15.771,0,28.603-12.856,28.603-28.645
					C82.08,25.705,69.248,12.88,53.477,12.88z"/>
			</g>
		</g>
		<g>
			<g>
				<path fill-rule="evenodd" clip-rule="evenodd" fill="#5D5D5D" d="M45.548,28.918c1.366,0,2.599,0.334,3.797,0.784
					c0.768,0.216,1.466,0.5,2.233,0.731c1.364,0.334,2.697,0.166,3.996-0.331c0.933-0.351,1.866-0.734,2.832-0.969
					c2.948-0.666,5.58,0,7.928,1.85c0.666,0.45,1.249,1.017,1.764,1.682c0.2,0.234,0.2,0.284-0.066,0.435
					c-2.465,1.497-3.881,3.697-4.131,6.528c-0.233,2.681,0.567,5.028,2.433,6.96c0.799,0.85,1.764,1.516,2.83,1.965
					c0.3,0.101,0.317,0.166,0.184,0.45c-1.2,2.798-2.781,5.347-4.78,7.629c-0.667,0.731-1.433,1.447-2.366,1.947
					c-1.431,0.8-2.914,0.85-4.396,0.168c-0.633-0.219-1.216-0.55-1.849-0.769c-2.083-0.682-4.097-0.547-6.113,0.269
					c-0.533,0.231-1.033,0.466-1.565,0.632c-1.948,0.699-3.664,0.284-5.263-0.95c-0.966-0.781-1.766-1.682-2.464-2.697
					c-1.699-2.281-2.999-4.713-3.897-7.409c-0.65-1.885-1.05-3.848-1.166-5.863c-0.1-2.199,0.066-4.396,0.933-6.396
					c1.398-3.247,3.763-5.41,7.161-6.429C44.233,28.968,44.916,28.868,45.548,28.918z"/>
			</g>
			<g>
				<path fill-rule="evenodd" clip-rule="evenodd" fill="#5D5D5D" d="M60.038,20.559c-0.033,1.899-0.6,3.447-1.566,4.896
					c-1.116,1.682-2.599,2.781-4.497,3.413c-0.565,0.216-1.148,0.266-1.764,0.266c-0.234,0-0.334-0.05-0.35-0.315
					c-0.15-1.348,0.166-2.632,0.733-3.848c1.149-2.463,3.047-4.063,5.562-4.962c0.517-0.182,1.017-0.282,1.565-0.332
					c0.217-0.084,0.267,0.101,0.284,0.266C60.005,20.174,60.054,20.442,60.038,20.559z"/>
			</g>
		</g>
	</g>
</g>
<g>
	<g>
		<g>
			<g>
				<path fill="#5D5D5D" d="M239.344,73.501c-17.653,0-32.018-14.372-32.018-32.042c0-17.635,14.364-31.976,32.018-31.976
					c17.652,0,32.018,14.341,32.018,31.976C271.362,59.129,256.997,73.501,239.344,73.501z M239.344,12.88
					c-15.771,0-28.604,12.825-28.604,28.579c0,15.788,12.832,28.645,28.604,28.645s28.604-12.856,28.604-28.645
					C267.948,25.705,255.116,12.88,239.344,12.88z"/>
			</g>
		</g>
		<g>
			<g>
				<path fill-rule="evenodd" clip-rule="evenodd" fill="#5D5D5D" d="M231.417,28.918c1.365,0,2.599,0.334,3.797,0.784
					c0.768,0.216,1.466,0.5,2.232,0.731c1.365,0.334,2.697,0.166,3.996-0.331c0.934-0.351,1.865-0.734,2.832-0.969
					c2.947-0.666,5.579,0,7.928,1.85c0.666,0.45,1.248,1.017,1.764,1.682c0.201,0.234,0.201,0.284-0.065,0.435
					c-2.466,1.497-3.881,3.697-4.131,6.528c-0.233,2.681,0.567,5.028,2.433,6.96c0.799,0.85,1.764,1.516,2.83,1.965
					c0.3,0.101,0.316,0.166,0.184,0.45c-1.199,2.798-2.781,5.347-4.779,7.629c-0.667,0.731-1.433,1.447-2.365,1.947
					c-1.432,0.8-2.914,0.85-4.396,0.168c-0.633-0.219-1.215-0.55-1.848-0.769c-2.083-0.682-4.098-0.547-6.113,0.269
					c-0.533,0.231-1.033,0.466-1.565,0.632c-1.948,0.699-3.664,0.284-5.263-0.95c-0.966-0.781-1.766-1.682-2.465-2.697
					c-1.698-2.281-2.998-4.713-3.896-7.409c-0.65-1.885-1.05-3.848-1.166-5.863c-0.1-2.199,0.066-4.396,0.934-6.396
					c1.398-3.247,3.763-5.41,7.16-6.429C230.101,28.968,230.784,28.868,231.417,28.918z"/>
			</g>
			<g>
				<path fill-rule="evenodd" clip-rule="evenodd" fill="#5D5D5D" d="M245.907,20.559c-0.033,1.899-0.601,3.447-1.566,4.896
					c-1.115,1.682-2.599,2.781-4.497,3.413c-0.565,0.216-1.148,0.266-1.765,0.266c-0.233,0-0.334-0.05-0.35-0.315
					c-0.15-1.348,0.166-2.632,0.732-3.848c1.149-2.463,3.048-4.063,5.563-4.962c0.517-0.182,1.017-0.282,1.564-0.332
					c0.218-0.084,0.268,0.101,0.285,0.266C245.874,20.174,245.922,20.442,245.907,20.559z"/>
			</g>
		</g>
	</g>
</g>
<g>
	<g>
		<path fill="#5D5D5D" d="M147.809,73.519c-17.654,0-32.018-14.39-32.018-32.042c0-17.654,14.364-32.01,32.018-32.01
			c17.652,0,32.017,14.355,32.017,32.01C179.826,59.129,165.461,73.519,147.809,73.519z M147.809,12.898
			c-15.772,0-28.604,12.822-28.604,28.578c0,15.788,12.832,28.61,28.604,28.61c15.771,0,28.603-12.822,28.603-28.61
			C176.412,25.721,163.58,12.898,147.809,12.898z"/>
	</g>
	<g>
		<g>
			<g>
				<path fill-rule="evenodd" clip-rule="evenodd" fill="#5D5D5D" d="M134.035,23.39c0,0,8.677-5.563,16.954,0.733l-4.08,14.888
					c0,0-7.861-5.695-17.154-0.383L134.035,23.39z"/>
			</g>
		</g>
		<g>
			<g>
				<path fill-rule="evenodd" clip-rule="evenodd" fill="#5D5D5D" d="M153.604,25.905c0,0,7.162,5.846,17.22,0.731l-4.28,14.89
					c0,0-10.042,5.979-17.187-0.966L153.604,25.905z"/>
			</g>
		</g>
		<g>
			<g>
				<path fill-rule="evenodd" clip-rule="evenodd" fill="#5D5D5D" d="M129.006,41.409c0,0,9.743-5.578,17.287,0.933l-4.614,15.139
					c0,0-6.111-5.979-16.87-1.132L129.006,41.409z"/>
			</g>
		</g>
		<g>
			<g>
				<path fill-rule="evenodd" clip-rule="evenodd" fill="#5D5D5D" d="M148.507,43.657c0,0,6.178,5.163,16.554,1.816l-4.197,14.505
					c0,0-10.991,5.146-16.419-1.666L148.507,43.657z"/>
			</g>
		</g>
	</g>
</g>
</svg>
