<svg width="102" height="24" viewBox="0 0 102 24" fill="none" xmlns="http://www.w3.org/2000/svg">
<path d="M80.1921 9.36644C81.5129 10.8342 82.1292 12.7739 81.9091 14.8175L80.9486 23.992H76.4101L77.4226 14.3456C77.5067 13.5857 77.2946 12.8899 76.8383 12.3779C76.3861 11.874 75.7257 11.6021 74.9813 11.6021C73.2444 11.6021 71.6195 13.0738 71.4314 14.8135L71.3874 15.2455C71.3874 15.2735 71.3874 15.3015 71.3794 15.3294L70.4669 23.992H65.9284L66.8889 14.8575C66.985 13.9577 66.7328 13.1338 66.1885 12.5259C65.6482 11.93 64.8678 11.5981 63.9833 11.5981H61.2899L59.9852 23.988H55.4507L57.2277 7.08682H63.9793C66.0885 7.08682 68.0095 7.89868 69.4063 9.36644C70.8671 7.95867 72.8482 7.08682 74.9733 7.08682C77.0985 7.08682 78.8674 7.89468 80.1841 9.35844L80.1921 9.36644ZM27.6396 7.09482H20.4877L18.7107 23.996H23.2492L24.5539 11.6061H27.6436C28.5281 11.6061 29.3125 11.934 29.8488 12.5339C30.3931 13.1378 30.6412 13.9657 30.5492 14.8655L29.5887 24H34.1231L35.0356 15.3374C35.2637 13.1538 34.6154 11.0862 33.2026 9.52241C31.7979 7.96267 29.8248 7.09882 27.6476 7.09882L27.6396 7.09482ZM10.5263 19.4888H7.43662C6.55214 19.4888 5.76771 19.1608 5.23142 18.5609C4.68312 17.957 4.43499 17.1251 4.53104 16.2253L5.49156 7.07082H0.9611L0.0446021 15.7574C-0.183522 17.941 0.468833 20.0127 1.8776 21.5764C3.28236 23.1361 5.25944 23.996 7.43662 23.996H14.5845L16.3615 7.07482H11.831L10.5223 19.4888H10.5263ZM40.8067 0L38.3014 23.996H42.8118L44.8409 4.50725C45.1011 2.01966 43.2961 0 40.8067 0ZM46.834 23.996H51.3685L53.1455 7.07482H48.615L46.834 23.996ZM49.3594 0L48.8871 4.50725H53.3976C53.6577 2.01966 51.8487 0 49.3594 0ZM86.9478 0L86.4756 4.50725H90.986C91.2462 2.01966 89.4412 0 86.9478 0ZM84.4345 23.996H88.9689L90.7459 7.07482H86.2114L84.4345 23.996ZM96.9853 19.0968L97.7777 11.5501H101.528L102 7.04283H98.25L98.4981 4.51125C98.7582 2.02366 96.9533 0.00399933 94.4639 0.00399933L92.4748 19.1008C92.1907 21.8004 94.1517 23.988 96.8532 23.988H101.528L102 19.4808H97.3255C97.1133 19.4808 96.9613 19.3088 96.9853 19.1008V19.0968Z" fill="black"/>
</svg>